<svg width="176" height="39" viewBox="0 0 176 39" fill="none" xmlns="http://www.w3.org/2000/svg">
<path d="M42.4922 1.32031C41.4766 1.89844 40.5234 2.60938 39.6328 3.45312C40.6016 3.875 41.4922 4.39844 42.3047 5.02344C43.1328 5.64844 43.8438 6.375 44.4375 7.20312C45.0469 8.03125 45.5156 8.96875 45.8438 10.0156C46.1875 11.0469 46.3594 12.1875 46.3594 13.4375C46.3594 14.5 46.1719 15.5078 45.7969 16.4609C45.4375 17.3984 44.9297 18.25 44.2734 19.0156C43.6328 19.7656 42.8594 20.4062 41.9531 20.9375C41.0625 21.4531 40.0859 21.8125 39.0234 22.0156C39.5391 22.7188 39.9531 23.5 40.2656 24.3594C40.5938 25.2031 40.7578 26.125 40.7578 27.125C40.7578 27.5312 40.7031 28.0156 40.5938 28.5781C40.4844 29.125 40.3438 29.7031 40.1719 30.3125C40.0156 30.9219 39.8359 31.5391 39.6328 32.1641C39.4453 32.7734 39.2656 33.3438 39.0938 33.875C38.9375 34.4062 38.8047 34.875 38.6953 35.2812C38.5859 35.6875 38.5312 35.9844 38.5312 36.1719C38.5312 36.625 38.6562 36.9766 38.9062 37.2266C39.1719 37.4922 39.5312 37.625 39.9844 37.625C40.8125 37.625 41.5938 37.4453 42.3281 37.0859C43.0625 36.7422 43.75 36.2734 44.3906 35.6797C45.0469 35.1016 45.6641 34.4297 46.2422 33.6641C46.8203 32.8828 47.3672 32.0703 47.8828 31.2266C48.4141 30.3828 48.9141 29.5391 49.3828 28.6953C49.8672 27.8359 50.3359 27.0234 50.7891 26.2578L51.6562 26.9141C50.6719 28.6641 49.7422 30.2734 48.8672 31.7422C48.0078 33.1953 47.125 34.4453 46.2188 35.4922C45.3125 36.5547 44.3516 37.3828 43.3359 37.9766C42.3203 38.5703 41.1641 38.8672 39.8672 38.8672C38.6641 38.8672 37.7266 38.5312 37.0547 37.8594C36.3984 37.2031 36.0703 36.2656 36.0703 35.0469C36.0703 34.2031 36.1953 33.3984 36.4453 32.6328C36.6953 31.8672 36.9688 31.1172 37.2656 30.3828C37.5781 29.6484 37.8594 28.9141 38.1094 28.1797C38.3594 27.4453 38.4844 26.6797 38.4844 25.8828C38.4844 25.1797 38.3672 24.5234 38.1328 23.9141C37.9141 23.3047 37.6016 22.7266 37.1953 22.1797C36.7109 22.1797 36.1562 22.1562 35.5312 22.1094C34.9219 22.0625 34.3359 21.9688 33.7734 21.8281C33.2266 21.6875 32.7656 21.4844 32.3906 21.2188C32.0156 20.9531 31.8281 20.6016 31.8281 20.1641C31.8281 19.7734 31.9844 19.4609 32.2969 19.2266C32.6094 18.9766 33.0703 18.8516 33.6797 18.8516C34.3828 18.8516 35.0625 19.0156 35.7188 19.3438C36.375 19.6562 37.0234 20.0703 37.6641 20.5859C38.5703 20.3828 39.4141 20.0156 40.1953 19.4844C40.9766 18.9531 41.6484 18.3203 42.2109 17.5859C42.7891 16.8359 43.2344 16.0078 43.5469 15.1016C43.875 14.1953 44.0391 13.2656 44.0391 12.3125C44.0391 11.3281 43.9062 10.4297 43.6406 9.61719C43.375 8.78906 43 8.04688 42.5156 7.39062C42.0312 6.73438 41.4609 6.16406 40.8047 5.67969C40.1484 5.17969 39.4297 4.76562 38.6484 4.4375C37.4609 5.73437 36.375 7.22656 35.3906 8.91406C34.4062 10.5859 33.4609 12.3594 32.5547 14.2344C31.6641 16.0938 30.7969 18 29.9531 19.9531C29.1094 21.8906 28.2266 23.7812 27.3047 25.625C26.3984 27.4531 25.4219 29.1797 24.375 30.8047C23.3438 32.4297 22.1953 33.8516 20.9297 35.0703C19.6797 36.2891 18.2812 37.25 16.7344 37.9531C15.2031 38.6562 13.4766 39.0078 11.5547 39.0078C10.0547 39.0078 8.64844 38.7734 7.33594 38.3047C6.02344 37.8359 4.875 37.1406 3.89062 36.2188C2.90625 35.3125 2.125 34.1875 1.54688 32.8438C0.984375 31.5 0.703125 29.9531 0.703125 28.2031C0.703125 27.1406 0.828125 25.9531 1.07812 24.6406C1.34375 23.3281 1.75781 21.9609 2.32031 20.5391C2.88281 19.1016 3.60156 17.6562 4.47656 16.2031C5.36719 14.7344 6.42969 13.3125 7.66406 11.9375C8.91406 10.5625 10.3516 9.27344 11.9766 8.07031C13.6172 6.86719 15.4609 5.82031 17.5078 4.92969C19.5703 4.02344 21.8516 3.3125 24.3516 2.79688C26.8516 2.28125 29.5938 2.02344 32.5781 2.02344C33.5938 2.02344 34.6016 2.10938 35.6016 2.28125C36.6016 2.4375 37.5703 2.67188 38.5078 2.98438C39.0547 2.5625 39.625 2.16406 40.2188 1.78906C40.8125 1.39844 41.4375 1.03125 42.0938 0.6875L42.4922 1.32031ZM10.9688 37.7656C12.6562 37.7656 14.1562 37.4297 15.4688 36.7578C16.7812 36.0859 17.9688 35.1797 19.0312 34.0391C20.0938 32.8828 21.0625 31.5312 21.9375 29.9844C22.8281 28.4219 23.6875 26.7656 24.5156 25.0156C25.3594 23.25 26.2031 21.4219 27.0469 19.5312C27.9062 17.625 28.8359 15.75 29.8359 13.9062C30.8359 12.0625 31.9453 10.2891 33.1641 8.58594C34.3828 6.88281 35.7812 5.33594 37.3594 3.94531C35.9219 3.52344 34.4141 3.3125 32.8359 3.3125C29.9297 3.3125 27.1641 3.70313 24.5391 4.48438C21.9297 5.26562 19.5 6.32031 17.25 7.64844C15.0156 8.97656 12.9922 10.5156 11.1797 12.2656C9.38281 14.0156 7.84375 15.8594 6.5625 17.7969C5.29688 19.7188 4.32031 21.6875 3.63281 23.7031C2.94531 25.7031 2.60156 27.6172 2.60156 29.4453C2.60156 30.5859 2.79688 31.6641 3.1875 32.6797C3.59375 33.6953 4.16406 34.5781 4.89844 35.3281C5.63281 36.0781 6.51562 36.6719 7.54688 37.1094C8.57812 37.5469 9.71875 37.7656 10.9688 37.7656ZM36 20.8906C35.6094 20.625 35.1953 20.3984 34.7578 20.2109C34.3203 20.0234 33.9375 19.9297 33.6094 19.9297C33.3906 19.9297 33.2422 19.9609 33.1641 20.0234C33.0859 20.0859 33.0469 20.1562 33.0469 20.2344C33.0469 20.375 33.1484 20.4922 33.3516 20.5859C33.5547 20.6641 33.8047 20.7344 34.1016 20.7969C34.4141 20.8438 34.7344 20.875 35.0625 20.8906C35.4062 20.9062 35.7188 20.9062 36 20.8906ZM69.4453 19.4141C69.2422 19.8203 68.9531 20.3516 68.5781 21.0078C68.2188 21.6641 67.8281 22.3906 67.4062 23.1875C66.9844 23.9688 66.5547 24.7891 66.1172 25.6484C65.6953 26.5078 65.3047 27.3516 64.9453 28.1797C64.6016 28.9922 64.3125 29.7656 64.0781 30.5C63.8594 31.2188 63.75 31.8281 63.75 32.3281C63.75 32.8281 63.8438 33.1562 64.0312 33.3125C64.2344 33.4531 64.4922 33.5234 64.8047 33.5234C65.2578 33.5234 65.7188 33.3906 66.1875 33.125C66.6719 32.8594 67.1406 32.5156 67.5938 32.0938C68.0625 31.6719 68.5156 31.1953 68.9531 30.6641C69.3906 30.1328 69.7969 29.6016 70.1719 29.0703C70.5625 28.5234 70.9141 28.0078 71.2266 27.5234C71.5391 27.0234 71.8047 26.6016 72.0234 26.2578L72.8672 26.9141C72.6016 27.4141 72.2891 27.9531 71.9297 28.5312C71.5703 29.1094 71.1719 29.6953 70.7344 30.2891C70.3125 30.8672 69.8516 31.4297 69.3516 31.9766C68.8516 32.5234 68.3203 33.0078 67.7578 33.4297C67.2109 33.8516 66.6328 34.1875 66.0234 34.4375C65.4141 34.6875 64.7891 34.8125 64.1484 34.8125C63.2109 34.8125 62.5234 34.5312 62.0859 33.9688C61.6484 33.4062 61.4297 32.6797 61.4297 31.7891C61.4297 31.7266 61.4297 31.5938 61.4297 31.3906C61.4453 31.1719 61.4688 31 61.5 30.875C60.7188 31.8594 59.9688 32.6719 59.25 33.3125C58.5469 33.9531 57.8594 34.4609 57.1875 34.8359C56.5312 35.2109 55.8906 35.4688 55.2656 35.6094C54.6562 35.7656 54.0703 35.8438 53.5078 35.8438C52.9141 35.8438 52.3516 35.7422 51.8203 35.5391C51.3047 35.3516 50.8516 35.0703 50.4609 34.6953C50.0547 34.3203 49.7422 33.8594 49.5234 33.3125C49.2891 32.7656 49.1719 32.1328 49.1719 31.4141C49.1719 30.5234 49.375 29.5078 49.7812 28.3672C50.1719 27.2109 50.875 25.9688 51.8906 24.6406C52.75 23.5 53.6406 22.5391 54.5625 21.7578C55.5 20.9766 56.4141 20.3516 57.3047 19.8828C58.2109 19.3984 59.0703 19.0547 59.8828 18.8516C60.6953 18.6484 61.4219 18.5469 62.0625 18.5469C63.5 18.5469 64.5859 18.7891 65.3203 19.2734C66.0547 19.7422 66.5 20.4688 66.6562 21.4531C66.9688 21.0625 67.2969 20.6719 67.6406 20.2812C67.9844 19.8906 68.3359 19.4922 68.6953 19.0859L69.4453 19.4141ZM62.25 28.3203C62.4531 27.9922 62.7031 27.5781 63 27.0781C63.2969 26.5625 63.6094 26.0391 63.9375 25.5078C64.2656 24.9609 64.5859 24.4375 64.8984 23.9375C65.2109 23.4375 65.4844 23.0156 65.7188 22.6719C65.7188 22.5312 65.6953 22.3047 65.6484 21.9922C65.6172 21.6797 65.5156 21.3672 65.3438 21.0547C65.1719 20.7266 64.8984 20.4453 64.5234 20.2109C64.1484 19.9766 63.625 19.8594 62.9531 19.8594C62.4688 19.8594 61.9219 19.9375 61.3125 20.0938C60.7188 20.2344 60.0781 20.4844 59.3906 20.8438C58.7188 21.1875 58.0234 21.6484 57.3047 22.2266C56.5859 22.8047 55.8672 23.5234 55.1484 24.3828C54.0703 25.6797 53.2344 26.9844 52.6406 28.2969C52.0625 29.5938 51.7734 30.7656 51.7734 31.8125C51.7734 32.7031 51.9766 33.3906 52.3828 33.875C52.7891 34.3594 53.3672 34.6016 54.1172 34.6016C54.9766 34.6016 55.7812 34.4141 56.5312 34.0391C57.2812 33.6484 57.9844 33.1484 58.6406 32.5391C59.2969 31.9297 59.9219 31.2578 60.5156 30.5234C61.1094 29.7734 61.6875 29.0391 62.25 28.3203ZM91.5469 22.25C92 21.7188 92.4688 21.2266 92.9531 20.7734C93.4375 20.3203 93.9219 19.9297 94.4062 19.6016C94.8906 19.2734 95.3672 19.0234 95.8359 18.8516C96.3203 18.6641 96.7812 18.5703 97.2188 18.5703C97.5625 18.5703 97.8984 18.6328 98.2266 18.7578C98.5703 18.8672 98.875 19.0469 99.1406 19.2969C99.4062 19.5312 99.6172 19.8359 99.7734 20.2109C99.9297 20.5859 100.008 21.0312 100.008 21.5469C100.008 22.2969 99.9062 23.0391 99.7031 23.7734C99.5 24.4922 99.2422 25.1953 98.9297 25.8828C98.6172 26.5703 98.2812 27.2344 97.9219 27.875C97.5781 28.5156 97.25 29.1328 96.9375 29.7266C96.625 30.3047 96.3672 30.8594 96.1641 31.3906C95.9609 31.9062 95.8594 32.3828 95.8594 32.8203C95.8594 33.1641 95.9453 33.4141 96.1172 33.5703C96.3047 33.7109 96.5 33.7812 96.7031 33.7812C97.1094 33.7812 97.5859 33.5469 98.1328 33.0781C98.6953 32.6094 99.2812 32.0078 99.8906 31.2734C100.5 30.5391 101.109 29.7344 101.719 28.8594C102.344 27.9688 102.938 27.1016 103.5 26.2578L104.344 26.9141C104.141 27.2422 103.875 27.6797 103.547 28.2266C103.234 28.7578 102.867 29.3359 102.445 29.9609C102.023 30.5703 101.562 31.1953 101.062 31.8359C100.562 32.4609 100.031 33.0312 99.4688 33.5469C98.9219 34.0469 98.3516 34.4609 97.7578 34.7891C97.1641 35.1016 96.5703 35.2578 95.9766 35.2578C95.6484 35.2578 95.3281 35.2109 95.0156 35.1172C94.7188 35.0234 94.4531 34.875 94.2188 34.6719C93.9844 34.4531 93.7969 34.1719 93.6562 33.8281C93.5156 33.4844 93.4453 33.0625 93.4453 32.5625C93.4453 31.875 93.5625 31.2031 93.7969 30.5469C94.0312 29.8906 94.3281 29.2422 94.6875 28.6016C95.0469 27.9609 95.4297 27.3281 95.8359 26.7031C96.2578 26.0625 96.6484 25.4297 97.0078 24.8047C97.3672 24.1797 97.6641 23.5547 97.8984 22.9297C98.1328 22.2891 98.25 21.6406 98.25 20.9844C98.25 20.6562 98.1875 20.3984 98.0625 20.2109C97.9375 20.0078 97.7031 19.9062 97.3594 19.9062C96.8125 19.9062 96.2344 20.1328 95.625 20.5859C95.0156 21.0234 94.3828 21.6172 93.7266 22.3672C93.0703 23.1172 92.3984 23.9922 91.7109 24.9922C91.0234 25.9766 90.3359 27.0234 89.6484 28.1328C88.9766 29.2266 88.3047 30.3438 87.6328 31.4844C86.9766 32.6094 86.3438 33.6953 85.7344 34.7422L83.7656 33.7109C84.5938 32.0078 85.3672 30.4844 86.0859 29.1406C86.8203 27.7969 87.4609 26.5859 88.0078 25.5078C88.5547 24.4141 88.9844 23.4219 89.2969 22.5312C89.6094 21.625 89.7656 20.7734 89.7656 19.9766C89.7656 19.8203 89.75 19.6641 89.7188 19.5078C89.6875 19.3359 89.625 19.1875 89.5312 19.0625C89.4375 18.9375 89.3125 18.8359 89.1562 18.7578C89.0156 18.6641 88.8281 18.6172 88.5938 18.6172C88.0625 18.6172 87.5234 18.8672 86.9766 19.3672C86.4297 19.8516 85.8516 20.5234 85.2422 21.3828C84.6328 22.2266 83.9766 23.2188 83.2734 24.3594C82.5859 25.4844 81.8359 26.6797 81.0234 27.9453C80.2266 29.2109 79.3594 30.5156 78.4219 31.8594C77.4844 33.1875 76.4609 34.4766 75.3516 35.7266L73.7344 34.6484C74.2344 33.8984 74.7578 33.1094 75.3047 32.2812C75.8672 31.4375 76.4141 30.5859 76.9453 29.7266C77.4922 28.8672 78.0078 28.0156 78.4922 27.1719C78.9922 26.3125 79.4297 25.5 79.8047 24.7344C80.1797 23.9688 80.4766 23.2656 80.6953 22.625C80.9141 21.9844 81.0234 21.4375 81.0234 20.9844C81.0234 20.4531 80.8906 20.0703 80.625 19.8359C80.3594 19.6016 80.0156 19.4844 79.5938 19.4844C79.0938 19.4844 78.6016 19.6641 78.1172 20.0234C77.6484 20.3828 77.1484 20.8906 76.6172 21.5469C76.1016 22.2031 75.5391 22.9922 74.9297 23.9141C74.3359 24.8203 73.6562 25.8203 72.8906 26.9141L72.0469 26.2578C72.875 24.9453 73.6172 23.7891 74.2734 22.7891C74.9453 21.7891 75.5781 20.9531 76.1719 20.2812C76.7656 19.6094 77.3516 19.1016 77.9297 18.7578C78.5234 18.4141 79.1641 18.2422 79.8516 18.2422C80.0547 18.2422 80.3125 18.2812 80.625 18.3594C80.9531 18.4375 81.2734 18.5781 81.5859 18.7812C81.8984 18.9844 82.1719 19.2656 82.4062 19.625C82.6562 19.9844 82.8047 20.4453 82.8516 21.0078C83.7266 19.8828 84.6406 18.9844 85.5938 18.3125C86.5469 17.6406 87.4453 17.3047 88.2891 17.3047C88.8984 17.3047 89.4141 17.4297 89.8359 17.6797C90.2578 17.9141 90.5938 18.2266 90.8438 18.6172C91.1094 19.0078 91.2969 19.4531 91.4062 19.9531C91.5312 20.4375 91.5938 20.9297 91.5938 21.4297C91.5938 21.5547 91.5859 21.6875 91.5703 21.8281C91.5703 21.9688 91.5625 22.1094 91.5469 22.25ZM129.633 4.20312C129.461 4.45313 129.18 4.86719 128.789 5.44531C128.398 6.02344 127.945 6.71094 127.43 7.50781C126.914 8.30469 126.352 9.1875 125.742 10.1562C125.148 11.125 124.547 12.125 123.938 13.1562C123.344 14.1875 122.758 15.2344 122.18 16.2969C121.617 17.3438 121.117 18.3516 120.68 19.3203C119.992 20.8203 119.422 22.1641 118.969 23.3516C118.531 24.5234 118.18 25.5703 117.914 26.4922C117.664 27.4141 117.484 28.2188 117.375 28.9062C117.281 29.5781 117.234 30.1562 117.234 30.6406C117.234 31.5312 117.367 32.1484 117.633 32.4922C117.914 32.8359 118.289 33.0078 118.758 33.0078C119.242 33.0078 119.703 32.8828 120.141 32.6328C120.594 32.3828 121.023 32.0625 121.43 31.6719C121.852 31.2812 122.242 30.8359 122.602 30.3359C122.977 29.8359 123.32 29.3359 123.633 28.8359C123.961 28.3359 124.258 27.8594 124.523 27.4062C124.789 26.9531 125.023 26.5703 125.227 26.2578L126.07 26.9141C125.898 27.1953 125.68 27.5703 125.414 28.0391C125.164 28.4922 124.875 28.9922 124.547 29.5391C124.219 30.0859 123.844 30.6406 123.422 31.2031C123 31.75 122.531 32.25 122.016 32.7031C121.516 33.1562 120.953 33.5312 120.328 33.8281C119.719 34.1094 119.055 34.25 118.336 34.25C117.992 34.25 117.625 34.2031 117.234 34.1094C116.859 34.0156 116.508 33.8516 116.18 33.6172C115.852 33.3828 115.562 33.0625 115.312 32.6562C115.062 32.2344 114.898 31.7031 114.82 31.0625C113.648 32.3281 112.508 33.2891 111.398 33.9453C110.289 34.5859 109.242 34.9062 108.258 34.9062C107.758 34.9062 107.203 34.8203 106.594 34.6484C106 34.4766 105.438 34.1797 104.906 33.7578C104.375 33.3359 103.93 32.7812 103.57 32.0938C103.211 31.3906 103.031 30.5234 103.031 29.4922C103.031 28.3359 103.211 27.2344 103.57 26.1875C103.93 25.1406 104.414 24.1719 105.023 23.2812C105.633 22.375 106.328 21.5625 107.109 20.8438C107.906 20.1094 108.734 19.4922 109.594 18.9922C110.453 18.4766 111.312 18.0781 112.172 17.7969C113.047 17.5156 113.867 17.375 114.633 17.375C115.648 17.375 116.445 17.5 117.023 17.75C117.602 18 118.039 18.25 118.336 18.5C118.555 18.0625 118.852 17.5078 119.227 16.8359C119.602 16.1484 120.039 15.3906 120.539 14.5625C121.039 13.7188 121.594 12.8281 122.203 11.8906C122.812 10.9375 123.461 9.98438 124.148 9.03125C124.836 8.0625 125.555 7.10938 126.305 6.17188C127.07 5.23438 127.844 4.35938 128.625 3.54688L129.633 4.20312ZM114.797 29.3047C114.875 28.1484 115.141 26.7891 115.594 25.2266C116.062 23.6484 116.773 21.8359 117.727 19.7891C117.508 19.4609 117.195 19.2109 116.789 19.0391C116.398 18.8516 115.953 18.7578 115.453 18.7578C114.688 18.7578 113.906 18.9141 113.109 19.2266C112.328 19.5391 111.57 19.9609 110.836 20.4922C110.117 21.0234 109.438 21.6562 108.797 22.3906C108.156 23.1094 107.594 23.8828 107.109 24.7109C106.641 25.5391 106.266 26.4062 105.984 27.3125C105.719 28.2031 105.586 29.0859 105.586 29.9609C105.586 31.1328 105.828 32.0469 106.312 32.7031C106.812 33.3594 107.477 33.6875 108.305 33.6875C108.695 33.6875 109.125 33.6094 109.594 33.4531C110.062 33.2969 110.57 33.0469 111.117 32.7031C111.68 32.3438 112.266 31.8906 112.875 31.3438C113.484 30.7812 114.125 30.1016 114.797 29.3047ZM138.469 28.625C138.531 28.6406 138.594 28.6484 138.656 28.6484C138.719 28.6484 138.789 28.6484 138.867 28.6484C139.305 28.6484 139.703 28.6094 140.062 28.5312C140.422 28.4375 140.75 28.2969 141.047 28.1094C141.359 27.9219 141.656 27.6797 141.938 27.3828C142.219 27.0703 142.492 26.6953 142.758 26.2578L143.602 26.9141C142.852 27.9766 142.078 28.7188 141.281 29.1406C140.484 29.5625 139.641 29.7734 138.75 29.7734C138.422 29.7734 138.133 29.7422 137.883 29.6797C137.211 30.8047 136.492 31.7656 135.727 32.5625C134.961 33.3438 134.18 33.9844 133.383 34.4844C132.586 34.9844 131.797 35.3438 131.016 35.5625C130.234 35.7969 129.508 35.9141 128.836 35.9141C128.148 35.9141 127.508 35.7891 126.914 35.5391C126.336 35.3047 125.836 34.9609 125.414 34.5078C124.992 34.0547 124.664 33.5156 124.43 32.8906C124.195 32.2656 124.078 31.5625 124.078 30.7812C124.078 30 124.203 29.2031 124.453 28.3906C124.703 27.5781 125.039 26.7734 125.461 25.9766C125.898 25.1797 126.406 24.4141 126.984 23.6797C127.562 22.9297 128.188 22.2344 128.859 21.5938C129.531 20.9531 130.227 20.375 130.945 19.8594C131.664 19.3438 132.383 18.9219 133.102 18.5938L133.852 19.5781C133.023 20.1719 132.18 20.9219 131.32 21.8281C130.477 22.7344 129.703 23.7266 129 24.8047C128.312 25.8828 127.742 27.0078 127.289 28.1797C126.852 29.3359 126.633 30.4609 126.633 31.5547C126.633 32.5391 126.852 33.3047 127.289 33.8516C127.727 34.3828 128.391 34.6484 129.281 34.6484C129.969 34.6484 130.648 34.5078 131.32 34.2266C131.992 33.9453 132.648 33.5625 133.289 33.0781C133.93 32.5938 134.547 32.0234 135.141 31.3672C135.734 30.6953 136.297 29.9844 136.828 29.2344C136.375 28.9688 135.977 28.6172 135.633 28.1797C135.289 27.7266 135 27.2188 134.766 26.6562C134.531 26.0781 134.352 25.4609 134.227 24.8047C134.117 24.1484 134.062 23.4766 134.062 22.7891C134.062 22.1016 134.148 21.4531 134.32 20.8438C134.492 20.2344 134.727 19.7031 135.023 19.25C135.336 18.7812 135.695 18.4141 136.102 18.1484C136.508 17.8828 136.953 17.75 137.438 17.75C137.875 17.75 138.266 17.8672 138.609 18.1016C138.953 18.3203 139.242 18.6328 139.477 19.0391C139.711 19.4297 139.891 19.8984 140.016 20.4453C140.141 20.9922 140.203 21.5781 140.203 22.2031C140.203 22.6719 140.164 23.1875 140.086 23.75C140.008 24.3125 139.891 24.8828 139.734 25.4609C139.594 26.0234 139.414 26.5859 139.195 27.1484C138.992 27.6953 138.75 28.1875 138.469 28.625ZM135.281 22.7891C135.281 23.2422 135.32 23.7344 135.398 24.2656C135.477 24.7969 135.602 25.3125 135.773 25.8125C135.945 26.3125 136.164 26.7812 136.43 27.2188C136.695 27.6406 137.023 27.9766 137.414 28.2266C137.695 27.6797 137.93 27.125 138.117 26.5625C138.32 25.9844 138.484 25.4297 138.609 24.8984C138.75 24.3672 138.844 23.875 138.891 23.4219C138.953 22.9531 138.984 22.5469 138.984 22.2031C138.984 21.7344 138.945 21.3047 138.867 20.9141C138.789 20.5234 138.68 20.1875 138.539 19.9062C138.414 19.6094 138.25 19.3828 138.047 19.2266C137.859 19.0547 137.648 18.9688 137.414 18.9688C137.102 18.9688 136.812 19.0781 136.547 19.2969C136.281 19.5 136.055 19.7812 135.867 20.1406C135.68 20.4844 135.531 20.8906 135.422 21.3594C135.328 21.8125 135.281 22.2891 135.281 22.7891ZM162.281 22.25C162.734 21.7188 163.203 21.2266 163.688 20.7734C164.172 20.3203 164.656 19.9297 165.141 19.6016C165.625 19.2734 166.102 19.0234 166.57 18.8516C167.055 18.6641 167.516 18.5703 167.953 18.5703C168.297 18.5703 168.633 18.6328 168.961 18.7578C169.305 18.8672 169.609 19.0469 169.875 19.2969C170.141 19.5312 170.352 19.8359 170.508 20.2109C170.664 20.5859 170.742 21.0312 170.742 21.5469C170.742 22.2969 170.641 23.0391 170.438 23.7734C170.234 24.4922 169.977 25.1953 169.664 25.8828C169.352 26.5703 169.016 27.2344 168.656 27.875C168.312 28.5156 167.984 29.1328 167.672 29.7266C167.359 30.3047 167.102 30.8594 166.898 31.3906C166.695 31.9062 166.594 32.3828 166.594 32.8203C166.594 33.1641 166.68 33.4141 166.852 33.5703C167.039 33.7109 167.234 33.7812 167.438 33.7812C167.844 33.7812 168.32 33.5469 168.867 33.0781C169.43 32.6094 170.016 32.0078 170.625 31.2734C171.234 30.5391 171.844 29.7344 172.453 28.8594C173.078 27.9688 173.672 27.1016 174.234 26.2578L175.078 26.9141C174.875 27.2422 174.609 27.6797 174.281 28.2266C173.969 28.7578 173.602 29.3359 173.18 29.9609C172.758 30.5703 172.297 31.1953 171.797 31.8359C171.297 32.4609 170.766 33.0312 170.203 33.5469C169.656 34.0469 169.086 34.4609 168.492 34.7891C167.898 35.1016 167.305 35.2578 166.711 35.2578C166.383 35.2578 166.062 35.2109 165.75 35.1172C165.453 35.0234 165.188 34.875 164.953 34.6719C164.719 34.4531 164.531 34.1719 164.391 33.8281C164.25 33.4844 164.18 33.0625 164.18 32.5625C164.18 31.875 164.297 31.2031 164.531 30.5469C164.766 29.8906 165.062 29.2422 165.422 28.6016C165.781 27.9609 166.164 27.3281 166.57 26.7031C166.992 26.0625 167.383 25.4297 167.742 24.8047C168.102 24.1797 168.398 23.5547 168.633 22.9297C168.867 22.2891 168.984 21.6406 168.984 20.9844C168.984 20.6562 168.922 20.3984 168.797 20.2109C168.672 20.0078 168.438 19.9062 168.094 19.9062C167.547 19.9062 166.969 20.1328 166.359 20.5859C165.75 21.0234 165.117 21.6172 164.461 22.3672C163.805 23.1172 163.133 23.9922 162.445 24.9922C161.758 25.9766 161.07 27.0234 160.383 28.1328C159.711 29.2266 159.039 30.3438 158.367 31.4844C157.711 32.6094 157.078 33.6953 156.469 34.7422L154.5 33.7109C155.328 32.0078 156.102 30.4844 156.82 29.1406C157.555 27.7969 158.195 26.5859 158.742 25.5078C159.289 24.4141 159.719 23.4219 160.031 22.5312C160.344 21.625 160.5 20.7734 160.5 19.9766C160.5 19.8203 160.484 19.6641 160.453 19.5078C160.422 19.3359 160.359 19.1875 160.266 19.0625C160.172 18.9375 160.047 18.8359 159.891 18.7578C159.75 18.6641 159.562 18.6172 159.328 18.6172C158.797 18.6172 158.258 18.8672 157.711 19.3672C157.164 19.8516 156.586 20.5234 155.977 21.3828C155.367 22.2266 154.711 23.2188 154.008 24.3594C153.32 25.4844 152.57 26.6797 151.758 27.9453C150.961 29.2109 150.094 30.5156 149.156 31.8594C148.219 33.1875 147.195 34.4766 146.086 35.7266L144.469 34.6484C144.969 33.8984 145.492 33.1094 146.039 32.2812C146.602 31.4375 147.148 30.5859 147.68 29.7266C148.227 28.8672 148.742 28.0156 149.227 27.1719C149.727 26.3125 150.164 25.5 150.539 24.7344C150.914 23.9688 151.211 23.2656 151.43 22.625C151.648 21.9844 151.758 21.4375 151.758 20.9844C151.758 20.4531 151.625 20.0703 151.359 19.8359C151.094 19.6016 150.75 19.4844 150.328 19.4844C149.828 19.4844 149.336 19.6641 148.852 20.0234C148.383 20.3828 147.883 20.8906 147.352 21.5469C146.836 22.2031 146.273 22.9922 145.664 23.9141C145.07 24.8203 144.391 25.8203 143.625 26.9141L142.781 26.2578C143.609 24.9453 144.352 23.7891 145.008 22.7891C145.68 21.7891 146.312 20.9531 146.906 20.2812C147.5 19.6094 148.086 19.1016 148.664 18.7578C149.258 18.4141 149.898 18.2422 150.586 18.2422C150.789 18.2422 151.047 18.2812 151.359 18.3594C151.688 18.4375 152.008 18.5781 152.32 18.7812C152.633 18.9844 152.906 19.2656 153.141 19.625C153.391 19.9844 153.539 20.4453 153.586 21.0078C154.461 19.8828 155.375 18.9844 156.328 18.3125C157.281 17.6406 158.18 17.3047 159.023 17.3047C159.633 17.3047 160.148 17.4297 160.57 17.6797C160.992 17.9141 161.328 18.2266 161.578 18.6172C161.844 19.0078 162.031 19.4531 162.141 19.9531C162.266 20.4375 162.328 20.9297 162.328 21.4297C162.328 21.5547 162.32 21.6875 162.305 21.8281C162.305 21.9688 162.297 22.1094 162.281 22.25Z" fill="#319800"/>
</svg>
