<svg width="189" height="41" viewBox="0 0 189 41" fill="none" xmlns="http://www.w3.org/2000/svg">
<path d="M38.3984 2.29688C38.1484 2.60937 37.9062 2.91406 37.6719 3.21094C37.4531 3.49219 37.2344 3.78906 37.0156 4.10156C38.5938 4.67969 39.8672 5.39844 40.8359 6.25781C41.8047 7.10156 42.5547 7.99219 43.0859 8.92969C43.6172 9.85156 43.9688 10.7656 44.1406 11.6719C44.3281 12.5625 44.4219 13.3359 44.4219 13.9922C44.4219 14.9141 44.2656 15.7969 43.9531 16.6406C43.6562 17.4688 43.25 18.2266 42.7344 18.9141C42.2344 19.6016 41.6484 20.2031 40.9766 20.7188C40.3047 21.2188 39.6016 21.6016 38.8672 21.8672C40.3828 23.1172 41.5078 24.5078 42.2422 26.0391C42.9922 27.5703 43.3672 29.1172 43.3672 30.6797C43.3672 31.9922 43.0938 33.2344 42.5469 34.4062C42.0156 35.5781 41.2891 36.6016 40.3672 37.4766C39.4453 38.3516 38.3516 39.0469 37.0859 39.5625C35.8359 40.0781 34.5 40.3359 33.0781 40.3359C31.8438 40.3359 30.7031 40.1328 29.6562 39.7266C28.625 39.3359 27.6953 38.7969 26.8672 38.1094C26.0547 37.4219 25.3438 36.6094 24.7344 35.6719C24.1406 34.7344 23.6719 33.7344 23.3281 32.6719L24.5 32.3203C25.0781 34.1953 26.0312 35.6406 27.3594 36.6562C28.6875 37.6875 30.2891 38.2031 32.1641 38.2031C33.3203 38.2031 34.4219 37.9844 35.4688 37.5469C36.5312 37.125 37.4609 36.5469 38.2578 35.8125C39.0547 35.0625 39.6875 34.1875 40.1562 33.1875C40.625 32.1719 40.8594 31.0781 40.8594 29.9062C40.8594 29.1094 40.75 28.3516 40.5312 27.6328C40.3125 26.9141 40.0234 26.2344 39.6641 25.5938C39.3047 24.9531 38.8984 24.3672 38.4453 23.8359C38.0078 23.2891 37.5547 22.8047 37.0859 22.3828C36.6641 22.4609 36.2422 22.5234 35.8203 22.5703C35.3984 22.6172 34.9844 22.6406 34.5781 22.6406C34.0156 22.6406 33.4375 22.6016 32.8438 22.5234C32.2656 22.4297 31.7344 22.2969 31.25 22.125C30.7812 21.9531 30.3906 21.7266 30.0781 21.4453C29.7812 21.1641 29.6328 20.8203 29.6328 20.4141C29.6328 20.3203 29.6562 20.1875 29.7031 20.0156C29.75 19.8281 29.8438 19.6484 29.9844 19.4766C30.1406 19.3047 30.3672 19.1562 30.6641 19.0312C30.9609 18.8906 31.3672 18.8203 31.8828 18.8203C32.3672 18.8203 32.8516 18.875 33.3359 18.9844C33.8359 19.0938 34.3125 19.2422 34.7656 19.4297C35.2188 19.6016 35.6562 19.8047 36.0781 20.0391C36.5 20.2578 36.8828 20.4844 37.2266 20.7188C37.7891 20.4688 38.3516 20.1328 38.9141 19.7109C39.4922 19.2734 40.0156 18.7422 40.4844 18.1172C40.9531 17.4922 41.3359 16.7734 41.6328 15.9609C41.9297 15.1484 42.0781 14.2344 42.0781 13.2188C42.0781 11.4375 41.5859 9.83594 40.6016 8.41406C39.6172 6.99219 38.1562 5.90625 36.2188 5.15625C35.2812 6.46875 34.4062 7.77344 33.5938 9.07031C32.7812 10.3672 32.0234 11.6641 31.3203 12.9609C30.6172 14.2578 29.9531 15.5547 29.3281 16.8516C28.7188 18.1484 28.1328 19.4609 27.5703 20.7891C26.2734 23.8203 25.0078 26.4141 23.7734 28.5703C22.5391 30.7109 21.2188 32.4609 19.8125 33.8203C18.4219 35.1797 16.8984 36.1719 15.2422 36.7969C13.6016 37.4375 11.7188 37.7578 9.59375 37.7578C7.95312 37.7578 6.53906 37.4844 5.35156 36.9375C4.16406 36.4062 3.1875 35.6719 2.42188 34.7344C1.65625 33.7969 1.08594 32.7109 0.710938 31.4766C0.351562 30.2266 0.171875 28.8984 0.171875 27.4922C0.171875 25.9297 0.421875 24.3203 0.921875 22.6641C1.42188 20.9922 2.16406 19.3281 3.14844 17.6719C3.77344 16.625 4.54688 15.5391 5.46875 14.4141C6.39062 13.2734 7.44531 12.1562 8.63281 11.0625C9.82031 9.95312 11.1406 8.90625 12.5938 7.92188C14.0625 6.92187 15.6406 6.05469 17.3281 5.32031C19.0312 4.57031 20.8438 3.97656 22.7656 3.53906C24.7031 3.08594 26.7422 2.85938 28.8828 2.85938C30.1953 2.85938 31.3906 2.92969 32.4688 3.07031C33.5625 3.19531 34.5703 3.38281 35.4922 3.63281C35.8516 3.27344 36.2109 2.91406 36.5703 2.55469C36.9453 2.19531 37.3281 1.83594 37.7188 1.47656L38.3984 2.29688ZM29.0703 12.0234C29.8984 10.6484 30.7578 9.35938 31.6484 8.15625C32.5547 6.9375 33.5234 5.76562 34.5547 4.64062C33.9609 4.5 33.3281 4.39062 32.6562 4.3125C32 4.23438 31.3047 4.19531 30.5703 4.19531C28.2109 4.19531 25.8828 4.52344 23.5859 5.17969C21.3047 5.82031 19.125 6.71875 17.0469 7.875C14.9844 9.03125 13.0703 10.4062 11.3047 12C9.53906 13.5938 8.00781 15.3281 6.71094 17.2031C5.42969 19.0625 4.42188 21.0312 3.6875 23.1094C2.96875 25.1875 2.60938 27.2969 2.60938 29.4375C2.60938 30.5 2.75 31.4688 3.03125 32.3438C3.32812 33.2031 3.76562 33.9453 4.34375 34.5703C4.92188 35.1797 5.63281 35.6562 6.47656 36C7.33594 36.3281 8.32031 36.4922 9.42969 36.4922C11.2891 36.4922 12.9141 36.1484 14.3047 35.4609C15.6953 34.7578 16.9297 33.8047 18.0078 32.6016C19.1016 31.3984 20.0859 30 20.9609 28.4062C21.8359 26.7969 22.6875 25.0859 23.5156 23.2734C24.3594 21.4609 25.2188 19.5938 26.0938 17.6719C26.9688 15.75 27.9609 13.8672 29.0703 12.0234ZM35.6328 21.1875C35.3984 21.0156 35.1172 20.8594 34.7891 20.7188C34.4766 20.5625 34.1484 20.4375 33.8047 20.3438C33.4609 20.2344 33.1172 20.1484 32.7734 20.0859C32.4297 20.0234 32.1328 19.9922 31.8828 19.9922C31.4453 19.9922 31.1641 20.0469 31.0391 20.1562C30.9297 20.25 30.875 20.3359 30.875 20.4141C30.875 20.5547 30.9766 20.6797 31.1797 20.7891C31.3984 20.8984 31.6641 21 31.9766 21.0938C32.3047 21.1719 32.6641 21.2344 33.0547 21.2812C33.4453 21.3281 33.8281 21.3516 34.2031 21.3516C34.375 21.3516 34.5703 21.3438 34.7891 21.3281C35.0078 21.3125 35.2891 21.2656 35.6328 21.1875ZM60.6875 29.625C60.75 29.6406 60.8125 29.6484 60.875 29.6484C60.9375 29.6484 61.0078 29.6484 61.0859 29.6484C61.5234 29.6484 61.9219 29.6094 62.2812 29.5312C62.6406 29.4375 62.9688 29.2969 63.2656 29.1094C63.5781 28.9219 63.875 28.6797 64.1562 28.3828C64.4375 28.0703 64.7109 27.6953 64.9766 27.2578L65.8203 27.9141C65.0703 28.9766 64.2969 29.7188 63.5 30.1406C62.7031 30.5625 61.8594 30.7734 60.9688 30.7734C60.6406 30.7734 60.3516 30.7422 60.1016 30.6797C59.4297 31.8047 58.7109 32.7656 57.9453 33.5625C57.1797 34.3438 56.3984 34.9844 55.6016 35.4844C54.8047 35.9844 54.0156 36.3438 53.2344 36.5625C52.4531 36.7969 51.7266 36.9141 51.0547 36.9141C50.3672 36.9141 49.7266 36.7891 49.1328 36.5391C48.5547 36.3047 48.0547 35.9609 47.6328 35.5078C47.2109 35.0547 46.8828 34.5156 46.6484 33.8906C46.4141 33.2656 46.2969 32.5625 46.2969 31.7812C46.2969 31 46.4219 30.2031 46.6719 29.3906C46.9219 28.5781 47.2578 27.7734 47.6797 26.9766C48.1172 26.1797 48.625 25.4141 49.2031 24.6797C49.7812 23.9297 50.4062 23.2344 51.0781 22.5938C51.75 21.9531 52.4453 21.375 53.1641 20.8594C53.8828 20.3438 54.6016 19.9219 55.3203 19.5938L56.0703 20.5781C55.2422 21.1719 54.3984 21.9219 53.5391 22.8281C52.6953 23.7344 51.9219 24.7266 51.2188 25.8047C50.5312 26.8828 49.9609 28.0078 49.5078 29.1797C49.0703 30.3359 48.8516 31.4609 48.8516 32.5547C48.8516 33.5391 49.0703 34.3047 49.5078 34.8516C49.9453 35.3828 50.6094 35.6484 51.5 35.6484C52.1875 35.6484 52.8672 35.5078 53.5391 35.2266C54.2109 34.9453 54.8672 34.5625 55.5078 34.0781C56.1484 33.5938 56.7656 33.0234 57.3594 32.3672C57.9531 31.6953 58.5156 30.9844 59.0469 30.2344C58.5938 29.9688 58.1953 29.6172 57.8516 29.1797C57.5078 28.7266 57.2188 28.2188 56.9844 27.6562C56.75 27.0781 56.5703 26.4609 56.4453 25.8047C56.3359 25.1484 56.2812 24.4766 56.2812 23.7891C56.2812 23.1016 56.3672 22.4531 56.5391 21.8438C56.7109 21.2344 56.9453 20.7031 57.2422 20.25C57.5547 19.7812 57.9141 19.4141 58.3203 19.1484C58.7266 18.8828 59.1719 18.75 59.6562 18.75C60.0938 18.75 60.4844 18.8672 60.8281 19.1016C61.1719 19.3203 61.4609 19.6328 61.6953 20.0391C61.9297 20.4297 62.1094 20.8984 62.2344 21.4453C62.3594 21.9922 62.4219 22.5781 62.4219 23.2031C62.4219 23.6719 62.3828 24.1875 62.3047 24.75C62.2266 25.3125 62.1094 25.8828 61.9531 26.4609C61.8125 27.0234 61.6328 27.5859 61.4141 28.1484C61.2109 28.6953 60.9688 29.1875 60.6875 29.625ZM57.5 23.7891C57.5 24.2422 57.5391 24.7344 57.6172 25.2656C57.6953 25.7969 57.8203 26.3125 57.9922 26.8125C58.1641 27.3125 58.3828 27.7812 58.6484 28.2188C58.9141 28.6406 59.2422 28.9766 59.6328 29.2266C59.9141 28.6797 60.1484 28.125 60.3359 27.5625C60.5391 26.9844 60.7031 26.4297 60.8281 25.8984C60.9688 25.3672 61.0625 24.875 61.1094 24.4219C61.1719 23.9531 61.2031 23.5469 61.2031 23.2031C61.2031 22.7344 61.1641 22.3047 61.0859 21.9141C61.0078 21.5234 60.8984 21.1875 60.7578 20.9062C60.6328 20.6094 60.4688 20.3828 60.2656 20.2266C60.0781 20.0547 59.8672 19.9688 59.6328 19.9688C59.3203 19.9688 59.0312 20.0781 58.7656 20.2969C58.5 20.5 58.2734 20.7812 58.0859 21.1406C57.8984 21.4844 57.75 21.8906 57.6406 22.3594C57.5469 22.8125 57.5 23.2891 57.5 23.7891ZM83.6328 20.4141C83.4297 20.8203 83.1406 21.3516 82.7656 22.0078C82.4062 22.6641 82.0156 23.3906 81.5938 24.1875C81.1719 24.9688 80.7422 25.7891 80.3047 26.6484C79.8828 27.5078 79.4922 28.3516 79.1328 29.1797C78.7891 29.9922 78.5 30.7656 78.2656 31.5C78.0469 32.2188 77.9375 32.8281 77.9375 33.3281C77.9375 33.8281 78.0312 34.1562 78.2188 34.3125C78.4219 34.4531 78.6797 34.5234 78.9922 34.5234C79.4453 34.5234 79.9062 34.3906 80.375 34.125C80.8594 33.8594 81.3281 33.5156 81.7812 33.0938C82.25 32.6719 82.7031 32.1953 83.1406 31.6641C83.5781 31.1328 83.9844 30.6016 84.3594 30.0703C84.75 29.5234 85.1016 29.0078 85.4141 28.5234C85.7266 28.0234 85.9922 27.6016 86.2109 27.2578L87.0547 27.9141C86.7891 28.4141 86.4766 28.9531 86.1172 29.5312C85.7578 30.1094 85.3594 30.6953 84.9219 31.2891C84.5 31.8672 84.0391 32.4297 83.5391 32.9766C83.0391 33.5234 82.5078 34.0078 81.9453 34.4297C81.3984 34.8516 80.8203 35.1875 80.2109 35.4375C79.6016 35.6875 78.9766 35.8125 78.3359 35.8125C77.3984 35.8125 76.7109 35.5312 76.2734 34.9688C75.8359 34.4062 75.6172 33.6797 75.6172 32.7891C75.6172 32.7266 75.6172 32.5938 75.6172 32.3906C75.6328 32.1719 75.6562 32 75.6875 31.875C74.9062 32.8594 74.1562 33.6719 73.4375 34.3125C72.7344 34.9531 72.0469 35.4609 71.375 35.8359C70.7188 36.2109 70.0781 36.4688 69.4531 36.6094C68.8438 36.7656 68.2578 36.8438 67.6953 36.8438C67.1016 36.8438 66.5391 36.7422 66.0078 36.5391C65.4922 36.3516 65.0391 36.0703 64.6484 35.6953C64.2422 35.3203 63.9297 34.8594 63.7109 34.3125C63.4766 33.7656 63.3594 33.1328 63.3594 32.4141C63.3594 31.5234 63.5625 30.5078 63.9688 29.3672C64.3594 28.2109 65.0625 26.9688 66.0781 25.6406C66.9375 24.5 67.8281 23.5391 68.75 22.7578C69.6875 21.9766 70.6016 21.3516 71.4922 20.8828C72.3984 20.3984 73.2578 20.0547 74.0703 19.8516C74.8828 19.6484 75.6094 19.5469 76.25 19.5469C77.6875 19.5469 78.7734 19.7891 79.5078 20.2734C80.2422 20.7422 80.6875 21.4688 80.8438 22.4531C81.1562 22.0625 81.4844 21.6719 81.8281 21.2812C82.1719 20.8906 82.5234 20.4922 82.8828 20.0859L83.6328 20.4141ZM76.4375 29.3203C76.6406 28.9922 76.8906 28.5781 77.1875 28.0781C77.4844 27.5625 77.7969 27.0391 78.125 26.5078C78.4531 25.9609 78.7734 25.4375 79.0859 24.9375C79.3984 24.4375 79.6719 24.0156 79.9062 23.6719C79.9062 23.5312 79.8828 23.3047 79.8359 22.9922C79.8047 22.6797 79.7031 22.3672 79.5312 22.0547C79.3594 21.7266 79.0859 21.4453 78.7109 21.2109C78.3359 20.9766 77.8125 20.8594 77.1406 20.8594C76.6562 20.8594 76.1094 20.9375 75.5 21.0938C74.9062 21.2344 74.2656 21.4844 73.5781 21.8438C72.9062 22.1875 72.2109 22.6484 71.4922 23.2266C70.7734 23.8047 70.0547 24.5234 69.3359 25.3828C68.2578 26.6797 67.4219 27.9844 66.8281 29.2969C66.25 30.5938 65.9609 31.7656 65.9609 32.8125C65.9609 33.7031 66.1641 34.3906 66.5703 34.875C66.9766 35.3594 67.5547 35.6016 68.3047 35.6016C69.1641 35.6016 69.9688 35.4141 70.7188 35.0391C71.4688 34.6484 72.1719 34.1484 72.8281 33.5391C73.4844 32.9297 74.1094 32.2578 74.7031 31.5234C75.2969 30.7734 75.875 30.0391 76.4375 29.3203ZM93.7578 17.6016C93.6797 17.7422 93.5781 17.8984 93.4531 18.0703C93.3281 18.2266 93.2031 18.4141 93.0781 18.6328C92.9688 18.8359 92.8672 19.0781 92.7734 19.3594C92.6953 19.6406 92.6562 19.9766 92.6562 20.3672C92.6562 20.6953 92.7344 21.1406 92.8906 21.7031C93.0625 22.2656 93.2422 22.9141 93.4297 23.6484C93.6172 24.3672 93.7891 25.1562 93.9453 26.0156C94.1172 26.8594 94.2031 27.7344 94.2031 28.6406C94.2031 29.9688 94.0234 31.1406 93.6641 32.1562C93.3047 33.1719 92.8281 34.0391 92.2344 34.7578C93.4531 34.1016 94.6484 33.1641 95.8203 31.9453C96.9922 30.7109 98.1719 29.1484 99.3594 27.2578L100.156 27.9609C99.4844 29.0703 98.7188 30.1719 97.8594 31.2656C97.0156 32.3438 96.0859 33.3203 95.0703 34.1953C94.0547 35.0547 92.9609 35.75 91.7891 36.2812C90.6172 36.8281 89.375 37.1016 88.0625 37.1016C86.8906 37.1016 85.9062 36.8203 85.1094 36.2578C84.2969 35.7109 83.7969 34.8828 83.6094 33.7734L84.4531 33.6094C84.4531 33.7031 84.5 33.8594 84.5938 34.0781C84.6719 34.2812 84.8047 34.4844 84.9922 34.6875C85.1797 34.8906 85.4375 35.0703 85.7656 35.2266C86.0781 35.3828 86.4688 35.4609 86.9375 35.4609C87.5625 35.4609 88.1172 35.3203 88.6016 35.0391C89.0859 34.7422 89.5078 34.3594 89.8672 33.8906C90.2266 33.4219 90.5312 32.8906 90.7812 32.2969C91.0312 31.6875 91.2266 31.0625 91.3672 30.4219C91.5234 29.7812 91.6328 29.1562 91.6953 28.5469C91.7578 27.9375 91.7891 27.3828 91.7891 26.8828C91.7891 26.3828 91.7656 25.8281 91.7188 25.2188C91.6875 24.6094 91.6484 24.0312 91.6016 23.4844C91.5547 22.9219 91.5078 22.4375 91.4609 22.0312C91.4297 21.6094 91.4141 21.3359 91.4141 21.2109V21.1641C91.2109 21.3828 90.9688 21.7031 90.6875 22.125C90.4062 22.5469 90.1016 23.0078 89.7734 23.5078C89.4609 24.0078 89.1406 24.5156 88.8125 25.0312C88.5 25.5469 88.2109 26.0156 87.9453 26.4375C87.6953 26.8594 87.4844 27.2109 87.3125 27.4922C87.1562 27.7578 87.0781 27.8984 87.0781 27.9141L86.2344 27.2578C86.25 27.2422 86.4453 26.9062 86.8203 26.25C87.1953 25.5938 87.6875 24.7656 88.2969 23.7656C88.9219 22.75 89.625 21.6328 90.4062 20.4141C91.1875 19.1797 91.9922 17.9844 92.8203 16.8281L93.7578 17.6016ZM152.844 2.71875C151.828 3.375 150.766 3.92969 149.656 4.38281C148.562 4.82031 147.43 5.17188 146.258 5.4375C145.086 5.70312 143.883 5.89062 142.648 6C141.414 6.10938 140.164 6.16406 138.898 6.16406C137.305 6.16406 135.625 6.08594 133.859 5.92969C132.094 5.75781 130.336 5.57812 128.586 5.39062C126.852 5.20312 125.172 5.03125 123.547 4.875C121.922 4.70313 120.453 4.61719 119.141 4.61719C117.219 4.61719 115.469 4.86719 113.891 5.36719C112.312 5.85156 110.961 6.54687 109.836 7.45312C108.711 8.34375 107.836 9.42188 107.211 10.6875C106.602 11.9375 106.297 13.3359 106.297 14.8828C106.297 15.9609 106.477 16.9375 106.836 17.8125C107.211 18.6719 107.734 19.3984 108.406 19.9922C109.094 20.5859 109.914 21.0469 110.867 21.375C111.82 21.6875 112.875 21.8438 114.031 21.8438C115.031 21.8438 116.062 21.7266 117.125 21.4922C118.188 21.2422 119.234 20.875 120.266 20.3906L120.758 21.3516C119.711 21.9609 118.5 22.4453 117.125 22.8047C115.766 23.1641 114.391 23.3438 113 23.3438C111.797 23.3438 110.641 23.1719 109.531 22.8281C108.422 22.4844 107.43 21.9688 106.555 21.2812C105.695 20.5781 105.008 19.7031 104.492 18.6562C103.977 17.5938 103.719 16.3516 103.719 14.9297C103.719 13.5234 103.93 12.2656 104.352 11.1562C104.773 10.0312 105.352 9.03906 106.086 8.17969C106.82 7.30469 107.68 6.5625 108.664 5.95312C109.648 5.34375 110.703 4.84375 111.828 4.45312C112.969 4.04688 114.148 3.75781 115.367 3.58594C116.586 3.39844 117.797 3.30469 119 3.30469C120.438 3.30469 121.977 3.39063 123.617 3.5625C125.273 3.73437 126.961 3.92187 128.68 4.125C130.398 4.3125 132.125 4.49219 133.859 4.66406C135.594 4.83594 137.273 4.92188 138.898 4.92188C140.117 4.92188 141.32 4.875 142.508 4.78125C143.695 4.67187 144.844 4.49219 145.953 4.24219C147.078 3.99219 148.156 3.66406 149.188 3.25781C150.234 2.83594 151.234 2.3125 152.188 1.6875L152.844 2.71875ZM136.391 8.22656C135.062 9.82031 133.883 11.4922 132.852 13.2422C131.836 14.9766 130.891 16.7188 130.016 18.4688C129.156 20.2188 128.336 21.9531 127.555 23.6719C126.773 25.375 125.961 27 125.117 28.5469C124.273 30.0781 123.367 31.5 122.398 32.8125C121.445 34.1094 120.352 35.2344 119.117 36.1875C117.898 37.1406 116.5 37.8828 114.922 38.4141C113.359 38.9609 111.562 39.2344 109.531 39.2344C107.734 39.2344 106.141 39 104.75 38.5312C103.375 38.0781 102.219 37.4453 101.281 36.6328C100.344 35.8359 99.6328 34.8984 99.1484 33.8203C98.6641 32.7266 98.4219 31.5469 98.4219 30.2812C98.4219 29.7969 98.4531 29.3359 98.5156 28.8984C98.5781 28.4609 98.6719 28.0625 98.7969 27.7031L99.9688 28.0547C99.875 28.3672 99.7969 28.7188 99.7344 29.1094C99.6719 29.4844 99.6406 29.875 99.6406 30.2812C99.6406 31.5781 99.9141 32.7109 100.461 33.6797C101.008 34.6484 101.727 35.4531 102.617 36.0938C103.508 36.7344 104.523 37.2109 105.664 37.5234C106.805 37.8516 107.969 38.0156 109.156 38.0156C110.875 38.0156 112.398 37.7188 113.727 37.125C115.07 36.5312 116.289 35.7266 117.383 34.7109C118.477 33.6797 119.469 32.4766 120.359 31.1016C121.266 29.7266 122.141 28.25 122.984 26.6719C123.828 25.0938 124.672 23.4531 125.516 21.75C126.375 20.0469 127.297 18.3594 128.281 16.6875C129.281 15.0156 130.375 13.4062 131.562 11.8594C132.75 10.2969 134.109 8.875 135.641 7.59375L136.391 8.22656ZM151.32 20.4141C151.117 20.8203 150.828 21.3516 150.453 22.0078C150.094 22.6641 149.703 23.3906 149.281 24.1875C148.859 24.9688 148.43 25.7891 147.992 26.6484C147.57 27.5078 147.18 28.3516 146.82 29.1797C146.477 29.9922 146.188 30.7656 145.953 31.5C145.734 32.2188 145.625 32.8281 145.625 33.3281C145.625 33.8281 145.719 34.1562 145.906 34.3125C146.109 34.4531 146.367 34.5234 146.68 34.5234C147.133 34.5234 147.594 34.3906 148.062 34.125C148.547 33.8594 149.016 33.5156 149.469 33.0938C149.938 32.6719 150.391 32.1953 150.828 31.6641C151.266 31.1328 151.672 30.6016 152.047 30.0703C152.438 29.5234 152.789 29.0078 153.102 28.5234C153.414 28.0234 153.68 27.6016 153.898 27.2578L154.742 27.9141C154.477 28.4141 154.164 28.9531 153.805 29.5312C153.445 30.1094 153.047 30.6953 152.609 31.2891C152.188 31.8672 151.727 32.4297 151.227 32.9766C150.727 33.5234 150.195 34.0078 149.633 34.4297C149.086 34.8516 148.508 35.1875 147.898 35.4375C147.289 35.6875 146.664 35.8125 146.023 35.8125C145.086 35.8125 144.398 35.5312 143.961 34.9688C143.523 34.4062 143.305 33.6797 143.305 32.7891C143.305 32.7266 143.305 32.5938 143.305 32.3906C143.32 32.1719 143.344 32 143.375 31.875C142.594 32.8594 141.844 33.6719 141.125 34.3125C140.422 34.9531 139.734 35.4609 139.062 35.8359C138.406 36.2109 137.766 36.4688 137.141 36.6094C136.531 36.7656 135.945 36.8438 135.383 36.8438C134.789 36.8438 134.227 36.7422 133.695 36.5391C133.18 36.3516 132.727 36.0703 132.336 35.6953C131.93 35.3203 131.617 34.8594 131.398 34.3125C131.164 33.7656 131.047 33.1328 131.047 32.4141C131.047 31.5234 131.25 30.5078 131.656 29.3672C132.047 28.2109 132.75 26.9688 133.766 25.6406C134.625 24.5 135.516 23.5391 136.438 22.7578C137.375 21.9766 138.289 21.3516 139.18 20.8828C140.086 20.3984 140.945 20.0547 141.758 19.8516C142.57 19.6484 143.297 19.5469 143.938 19.5469C145.375 19.5469 146.461 19.7891 147.195 20.2734C147.93 20.7422 148.375 21.4688 148.531 22.4531C148.844 22.0625 149.172 21.6719 149.516 21.2812C149.859 20.8906 150.211 20.4922 150.57 20.0859L151.32 20.4141ZM144.125 29.3203C144.328 28.9922 144.578 28.5781 144.875 28.0781C145.172 27.5625 145.484 27.0391 145.812 26.5078C146.141 25.9609 146.461 25.4375 146.773 24.9375C147.086 24.4375 147.359 24.0156 147.594 23.6719C147.594 23.5312 147.57 23.3047 147.523 22.9922C147.492 22.6797 147.391 22.3672 147.219 22.0547C147.047 21.7266 146.773 21.4453 146.398 21.2109C146.023 20.9766 145.5 20.8594 144.828 20.8594C144.344 20.8594 143.797 20.9375 143.188 21.0938C142.594 21.2344 141.953 21.4844 141.266 21.8438C140.594 22.1875 139.898 22.6484 139.18 23.2266C138.461 23.8047 137.742 24.5234 137.023 25.3828C135.945 26.6797 135.109 27.9844 134.516 29.2969C133.938 30.5938 133.648 31.7656 133.648 32.8125C133.648 33.7031 133.852 34.3906 134.258 34.875C134.664 35.3594 135.242 35.6016 135.992 35.6016C136.852 35.6016 137.656 35.4141 138.406 35.0391C139.156 34.6484 139.859 34.1484 140.516 33.5391C141.172 32.9297 141.797 32.2578 142.391 31.5234C142.984 30.7734 143.562 30.0391 144.125 29.3203ZM170.891 1.89844C171.438 1.89844 171.891 2.03125 172.25 2.29688C172.625 2.5625 172.812 3.04688 172.812 3.75C172.812 4.23438 172.711 4.8125 172.508 5.48438C172.32 6.15625 172.055 6.89062 171.711 7.6875C171.383 8.46875 170.992 9.29688 170.539 10.1719C170.086 11.0312 169.594 11.8906 169.062 12.75C168.547 13.6094 168 14.4453 167.422 15.2578C166.859 16.0703 166.297 16.8203 165.734 17.5078C164.609 18.8984 163.633 20.0703 162.805 21.0234C161.992 21.9766 161.289 22.7891 160.695 23.4609C160.102 24.1172 159.602 24.6562 159.195 25.0781C158.789 25.4844 158.43 25.8359 158.117 26.1328C157.805 26.4297 157.516 26.7031 157.25 26.9531C156.984 27.1875 156.711 27.4531 156.43 27.75C156.305 28.3438 156.242 28.9141 156.242 29.4609C156.258 29.9922 156.266 30.4844 156.266 30.9375C156.266 32.2969 156.484 33.3047 156.922 33.9609C157.359 34.6172 157.977 34.9453 158.773 34.9453C159.305 34.9453 159.836 34.8125 160.367 34.5469C160.914 34.2656 161.453 33.9062 161.984 33.4688C162.516 33.0312 163.031 32.5391 163.531 31.9922C164.031 31.4297 164.5 30.8672 164.938 30.3047C165.391 29.7266 165.797 29.1719 166.156 28.6406C166.516 28.1094 166.828 27.6484 167.094 27.2578L167.961 27.9141C167.914 27.9766 167.758 28.2266 167.492 28.6641C167.242 29.0859 166.906 29.6016 166.484 30.2109C166.062 30.8203 165.562 31.4766 164.984 32.1797C164.406 32.8672 163.781 33.5078 163.109 34.1016C162.438 34.6953 161.727 35.1875 160.977 35.5781C160.242 35.9688 159.492 36.1641 158.727 36.1641C158.086 36.1641 157.469 36.0469 156.875 35.8125C156.297 35.5625 155.781 35.1797 155.328 34.6641C154.891 34.1328 154.531 33.4609 154.25 32.6484C153.984 31.8359 153.852 30.8594 153.852 29.7188C153.852 28.2969 154.016 26.8125 154.344 25.2656C154.688 23.7031 155.148 22.1406 155.727 20.5781C156.305 19 156.984 17.4453 157.766 15.9141C158.547 14.3828 159.375 12.9297 160.25 11.5547C161.141 10.1641 162.062 8.88281 163.016 7.71094C163.984 6.52344 164.93 5.5 165.852 4.64062C166.789 3.78125 167.688 3.10938 168.547 2.625C169.406 2.14062 170.188 1.89844 170.891 1.89844ZM156.852 25.6641C158.18 24.2891 159.461 22.8984 160.695 21.4922C161.945 20.0703 163.109 18.6719 164.188 17.2969C165.281 15.9062 166.281 14.5625 167.188 13.2656C168.094 11.9531 168.867 10.7188 169.508 9.5625C170.148 8.40625 170.648 7.35156 171.008 6.39844C171.367 5.44531 171.547 4.625 171.547 3.9375C171.547 3.8125 171.484 3.64844 171.359 3.44531C171.234 3.22656 171.086 3.11719 170.914 3.11719C170.43 3.11719 169.789 3.4375 168.992 4.07812C168.195 4.71875 167.328 5.59375 166.391 6.70312C165.469 7.79688 164.508 9.07812 163.508 10.5469C162.523 12.0156 161.594 13.5859 160.719 15.2578C159.844 16.9297 159.062 18.6562 158.375 20.4375C157.688 22.2188 157.18 23.9609 156.852 25.6641ZM169.906 27.7734C170.719 26.6484 171.578 25.5703 172.484 24.5391C173.406 23.4922 174.336 22.5703 175.273 21.7734C176.211 20.9609 177.156 20.3125 178.109 19.8281C179.062 19.3438 179.992 19.1016 180.898 19.1016C181.461 19.1016 181.922 19.1875 182.281 19.3594C182.641 19.5312 182.922 19.75 183.125 20.0156C183.344 20.2812 183.492 20.5859 183.57 20.9297C183.664 21.2578 183.711 21.5859 183.711 21.9141C183.711 22.3828 183.617 22.8906 183.43 23.4375C183.258 23.9844 182.984 24.5391 182.609 25.1016C182.25 25.6484 181.789 26.1797 181.227 26.6953C180.664 27.1953 179.992 27.6484 179.211 28.0547C179.383 28.4609 179.469 28.9531 179.469 29.5312C179.469 29.8906 179.422 30.2578 179.328 30.6328C179.234 30.9922 179.133 31.3516 179.023 31.7109C178.914 32.0703 178.812 32.4375 178.719 32.8125C178.625 33.1719 178.578 33.5391 178.578 33.9141C178.578 34.1016 178.586 34.2812 178.602 34.4531C178.633 34.625 178.68 34.7812 178.742 34.9219C178.82 35.0625 178.93 35.1797 179.07 35.2734C179.227 35.3516 179.438 35.3906 179.703 35.3906C180.016 35.3906 180.375 35.2656 180.781 35.0156C181.188 34.75 181.617 34.4062 182.07 33.9844C182.523 33.5625 182.984 33.0781 183.453 32.5312C183.938 31.9688 184.406 31.3828 184.859 30.7734C185.312 30.1641 185.75 29.5625 186.172 28.9688C186.594 28.3594 186.977 27.7891 187.32 27.2578L188.188 27.9141C187.391 29.1016 186.609 30.2344 185.844 31.3125C185.094 32.3906 184.336 33.3359 183.57 34.1484C182.82 34.9609 182.055 35.6094 181.273 36.0938C180.492 36.5781 179.688 36.8203 178.859 36.8203C178.531 36.8203 178.188 36.7734 177.828 36.6797C177.484 36.5859 177.164 36.4297 176.867 36.2109C176.586 36.0078 176.352 35.7344 176.164 35.3906C175.977 35.0469 175.883 34.625 175.883 34.125C175.883 33.5312 176.031 32.8359 176.328 32.0391C176.594 31.2891 176.789 30.6641 176.914 30.1641C177.039 29.6484 177.109 29.2188 177.125 28.875C176.797 28.9531 176.445 29.0234 176.07 29.0859C175.711 29.1484 175.367 29.1797 175.039 29.1797C174.867 29.1797 174.68 29.1641 174.477 29.1328C174.273 29.0859 174.086 29.0156 173.914 28.9219C173.742 28.8281 173.594 28.7109 173.469 28.5703C173.359 28.4141 173.305 28.2188 173.305 27.9844C173.305 27.75 173.375 27.5312 173.516 27.3281C173.672 27.1094 173.875 26.9219 174.125 26.7656C174.391 26.5938 174.703 26.4609 175.062 26.3672C175.422 26.2734 175.82 26.2266 176.258 26.2266C177.07 26.2266 177.766 26.4453 178.344 26.8828C178.906 26.4453 179.367 25.9688 179.727 25.4531C180.102 24.9375 180.391 24.4375 180.594 23.9531C180.797 23.4688 180.938 23.0391 181.016 22.6641C181.094 22.2734 181.133 21.9844 181.133 21.7969C181.133 21.2812 181.039 20.9297 180.852 20.7422C180.664 20.5391 180.438 20.4375 180.172 20.4375C179.672 20.4375 179.109 20.6016 178.484 20.9297C177.875 21.2578 177.234 21.7031 176.562 22.2656C175.906 22.8281 175.227 23.4766 174.523 24.2109C173.836 24.9453 173.156 25.7188 172.484 26.5312C171.828 27.3438 171.188 28.1641 170.562 28.9922C169.953 29.8203 169.391 30.6016 168.875 31.3359C168.406 32.1172 167.984 32.8438 167.609 33.5156C167.25 34.1875 166.945 34.7656 166.695 35.25C166.445 35.7344 166.25 36.1016 166.109 36.3516C165.969 36.6016 165.891 36.6875 165.875 36.6094L163.555 36C165.398 31.7969 167.266 27.5938 169.156 23.3906C171.047 19.1875 173.039 14.9375 175.133 10.6406C175.445 10.0156 175.797 9.33594 176.188 8.60156C176.594 7.85156 177.023 7.10937 177.477 6.375C177.945 5.625 178.438 4.89844 178.953 4.19531C179.484 3.49219 180.023 2.875 180.57 2.34375C181.133 1.79688 181.703 1.36719 182.281 1.05469C182.859 0.726562 183.438 0.5625 184.016 0.5625C184.625 0.5625 185.117 0.734375 185.492 1.07812C185.883 1.42188 186.078 1.96875 186.078 2.71875C186.078 3.75 185.797 5.00781 185.234 6.49219C184.688 7.96094 183.867 9.52344 182.773 11.1797C181.68 12.8359 180.312 14.5156 178.672 16.2188C177.047 17.9062 175.148 19.4766 172.977 20.9297L169.906 27.7734ZM174.008 18.6797C175.898 17.2109 177.523 15.7031 178.883 14.1562C180.258 12.5938 181.383 11.0938 182.258 9.65625C183.148 8.21875 183.797 6.89062 184.203 5.67188C184.625 4.4375 184.836 3.40625 184.836 2.57812C184.836 2.34375 184.773 2.15625 184.648 2.01562C184.523 1.875 184.328 1.80469 184.062 1.80469C183.484 1.80469 182.891 2.09375 182.281 2.67188C181.672 3.23438 180.977 4.17188 180.195 5.48438C179.43 6.79688 178.547 8.53125 177.547 10.6875C176.547 12.8438 175.367 15.5078 174.008 18.6797ZM177.008 27.8203C176.93 27.6484 176.797 27.5 176.609 27.375C176.438 27.2344 176.242 27.1641 176.023 27.1641C175.57 27.1641 175.172 27.2578 174.828 27.4453C174.484 27.6328 174.312 27.8125 174.312 27.9844C174.312 28.1094 174.383 28.1953 174.523 28.2422C174.68 28.2734 174.82 28.2891 174.945 28.2891C175.352 28.2891 175.727 28.2422 176.07 28.1484C176.414 28.0547 176.727 27.9453 177.008 27.8203Z" fill="#319800"/>
</svg>
