<svg width="166" height="44" viewBox="0 0 166 44" fill="none" xmlns="http://www.w3.org/2000/svg">
<path d="M63.9922 42.0859C63.9453 42.1172 63.7344 42.2266 63.3594 42.4141C62.9844 42.6016 62.4922 42.8047 61.8828 43.0234C61.2734 43.2422 60.5781 43.4375 59.7969 43.6094C59.0156 43.7969 58.2031 43.8906 57.3594 43.8906C55.9844 43.8906 54.75 43.6484 53.6562 43.1641C52.5625 42.6797 51.6328 41.9922 50.8672 41.1016C50.1172 40.2266 49.5391 39.1641 49.1328 37.9141C48.7266 36.6797 48.5234 35.3047 48.5234 33.7891C48.5234 32.3359 48.7031 30.7422 49.0625 29.0078C49.4219 27.2578 49.8906 25.4609 50.4688 23.6172C51.0469 21.7734 51.6953 19.9297 52.4141 18.0859C53.1484 16.2422 53.8828 14.4922 54.6172 12.8359C55.3672 11.1641 56.0781 9.64062 56.75 8.26562C57.4219 6.875 58 5.71875 58.4844 4.79688C57.6094 5.79688 56.6094 6.95312 55.4844 8.26562C54.3594 9.5625 53.1562 10.9922 51.875 12.5547C50.6094 14.1016 49.2891 15.7578 47.9141 17.5234C46.5391 19.2734 45.1484 21.1016 43.7422 23.0078C42.3516 24.8984 40.9688 26.8438 39.5938 28.8438C38.2188 30.8281 36.9062 32.8281 35.6562 34.8438L34.5312 34.4688C34.7656 31.9219 35.1484 29.3984 35.6797 26.8984C36.2266 24.3828 36.8359 21.9688 37.5078 19.6562C38.1953 17.3281 38.9141 15.1484 39.6641 13.1172C40.4297 11.0703 41.1562 9.24219 41.8438 7.63281C40.7969 9.07031 39.75 10.6328 38.7031 12.3203C37.6719 13.9922 36.625 15.7188 35.5625 17.5C34.5 19.2656 33.4062 21.0469 32.2812 22.8438C31.1562 24.625 29.9844 26.3438 28.7656 28C27.5469 29.6406 26.2578 31.1797 24.8984 32.6172C23.5547 34.0391 22.1172 35.2734 20.5859 36.3203C19.0703 37.3828 17.4453 38.2188 15.7109 38.8281C13.9922 39.4375 12.1484 39.7422 10.1797 39.7422C8.66406 39.7422 7.28906 39.5156 6.05469 39.0625C4.82031 38.6094 3.75781 37.9844 2.86719 37.1875C1.99219 36.4062 1.32031 35.4844 0.851562 34.4219C0.367188 33.3594 0.125 32.2109 0.125 30.9766C0.125 29.7734 0.320312 28.6875 0.710938 27.7188C1.08594 26.7344 1.59375 25.8672 2.23438 25.1172C2.875 24.3516 3.61719 23.6953 4.46094 23.1484C5.32031 22.5859 6.21875 22.125 7.15625 21.7656C8.09375 21.4062 9.03906 21.1406 9.99219 20.9688C10.9609 20.7969 11.8828 20.7109 12.7578 20.7109C14.5703 20.7109 16.3047 20.9297 17.9609 21.3672C19.6172 21.7891 21.2109 22.5469 22.7422 23.6406L21.9219 24.5547C21.9062 24.5391 21.7031 24.3984 21.3125 24.1328C20.9219 23.8516 20.3594 23.5469 19.625 23.2188C18.8906 22.8906 17.9766 22.5938 16.8828 22.3281C15.8047 22.0625 14.5703 21.9297 13.1797 21.9297C11.8359 21.9297 10.5312 22.1094 9.26562 22.4688C8.01562 22.8281 6.90625 23.375 5.9375 24.1094C4.98438 24.8281 4.21875 25.7422 3.64062 26.8516C3.0625 27.9453 2.77344 29.2344 2.77344 30.7188C2.77344 31.7812 2.97656 32.7656 3.38281 33.6719C3.80469 34.5781 4.38281 35.3594 5.11719 36.0156C5.85156 36.6875 6.73438 37.2109 7.76562 37.5859C8.79688 37.9609 9.9375 38.1484 11.1875 38.1484C13.0625 38.1484 14.8594 37.75 16.5781 36.9531C18.2969 36.1562 19.9531 35.0781 21.5469 33.7188C23.1406 32.3594 24.6719 30.7734 26.1406 28.9609C27.625 27.1484 29.0469 25.2344 30.4062 23.2188C31.7812 21.2031 33.1094 19.1328 34.3906 17.0078C35.6719 14.8828 36.9141 12.8359 38.1172 10.8672C39.3203 8.88281 40.4922 7.03125 41.6328 5.3125C42.7734 3.57812 43.8906 2.08594 44.9844 0.835938L46.0391 1.46875C45.3516 3.5625 44.7578 5.40625 44.2578 7C43.7578 8.57812 43.3203 9.96875 42.9453 11.1719C42.5859 12.375 42.2734 13.4141 42.0078 14.2891C41.7578 15.1641 41.5391 15.9453 41.3516 16.6328C41.1641 17.3203 40.9922 17.9453 40.8359 18.5078C40.6953 19.0547 40.5469 19.6016 40.3906 20.1484C40.25 20.6953 40.0859 21.2734 39.8984 21.8828C39.7109 22.4922 39.4844 23.2031 39.2188 24.0156C38.9531 24.8125 38.6406 25.7422 38.2812 26.8047C37.9219 27.8516 37.4844 29.0938 36.9688 30.5312C38.2812 28.5469 39.625 26.5938 41 24.6719C42.3906 22.75 43.7734 20.8906 45.1484 19.0938C46.5234 17.2969 47.8672 15.5781 49.1797 13.9375C50.5078 12.2969 51.7578 10.7734 52.9297 9.36719C54.1172 7.96094 55.2031 6.6875 56.1875 5.54688C57.1875 4.39063 58.0547 3.40625 58.7891 2.59375C59.5234 1.78125 60.0938 1.14844 60.5 0.695312C60.9219 0.242188 61.1406 0.0078125 61.1562 -0.0078125L62.1406 0.71875C61.2188 3 60.3047 5.28906 59.3984 7.58594C58.4922 9.86719 57.6172 12.0938 56.7734 14.2656C55.9453 16.4375 55.1719 18.5312 54.4531 20.5469C53.7344 22.5625 53.1094 24.4531 52.5781 26.2188C52.0469 27.9688 51.625 29.5703 51.3125 31.0234C51.0156 32.4609 50.8672 33.6953 50.8672 34.7266C50.8672 35.9453 51.0078 37.0469 51.2891 38.0312C51.5859 39.0156 52.0078 39.8516 52.5547 40.5391C53.1016 41.2266 53.7734 41.75 54.5703 42.1094C55.3828 42.4844 56.2969 42.6719 57.3125 42.6719C58.0781 42.6719 58.8203 42.5859 59.5391 42.4141C60.2734 42.2422 60.9219 42.0547 61.4844 41.8516C62.0469 41.6484 62.5 41.4609 62.8438 41.2891C63.1875 41.1172 63.3672 41.0312 63.3828 41.0312L63.9922 42.0859ZM73.25 27.625C73.3125 27.6406 73.375 27.6484 73.4375 27.6484C73.5 27.6484 73.5703 27.6484 73.6484 27.6484C74.0859 27.6484 74.4844 27.6094 74.8438 27.5312C75.2031 27.4375 75.5312 27.2969 75.8281 27.1094C76.1406 26.9219 76.4375 26.6797 76.7188 26.3828C77 26.0703 77.2734 25.6953 77.5391 25.2578L78.3828 25.9141C77.6328 26.9766 76.8594 27.7188 76.0625 28.1406C75.2656 28.5625 74.4219 28.7734 73.5312 28.7734C73.2031 28.7734 72.9141 28.7422 72.6641 28.6797C71.9922 29.8047 71.2734 30.7656 70.5078 31.5625C69.7422 32.3438 68.9609 32.9844 68.1641 33.4844C67.3672 33.9844 66.5781 34.3438 65.7969 34.5625C65.0156 34.7969 64.2891 34.9141 63.6172 34.9141C62.9297 34.9141 62.2891 34.7891 61.6953 34.5391C61.1172 34.3047 60.6172 33.9609 60.1953 33.5078C59.7734 33.0547 59.4453 32.5156 59.2109 31.8906C58.9766 31.2656 58.8594 30.5625 58.8594 29.7812C58.8594 29 58.9844 28.2031 59.2344 27.3906C59.4844 26.5781 59.8203 25.7734 60.2422 24.9766C60.6797 24.1797 61.1875 23.4141 61.7656 22.6797C62.3438 21.9297 62.9688 21.2344 63.6406 20.5938C64.3125 19.9531 65.0078 19.375 65.7266 18.8594C66.4453 18.3438 67.1641 17.9219 67.8828 17.5938L68.6328 18.5781C67.8047 19.1719 66.9609 19.9219 66.1016 20.8281C65.2578 21.7344 64.4844 22.7266 63.7812 23.8047C63.0938 24.8828 62.5234 26.0078 62.0703 27.1797C61.6328 28.3359 61.4141 29.4609 61.4141 30.5547C61.4141 31.5391 61.6328 32.3047 62.0703 32.8516C62.5078 33.3828 63.1719 33.6484 64.0625 33.6484C64.75 33.6484 65.4297 33.5078 66.1016 33.2266C66.7734 32.9453 67.4297 32.5625 68.0703 32.0781C68.7109 31.5938 69.3281 31.0234 69.9219 30.3672C70.5156 29.6953 71.0781 28.9844 71.6094 28.2344C71.1562 27.9688 70.7578 27.6172 70.4141 27.1797C70.0703 26.7266 69.7812 26.2188 69.5469 25.6562C69.3125 25.0781 69.1328 24.4609 69.0078 23.8047C68.8984 23.1484 68.8438 22.4766 68.8438 21.7891C68.8438 21.1016 68.9297 20.4531 69.1016 19.8438C69.2734 19.2344 69.5078 18.7031 69.8047 18.25C70.1172 17.7812 70.4766 17.4141 70.8828 17.1484C71.2891 16.8828 71.7344 16.75 72.2188 16.75C72.6562 16.75 73.0469 16.8672 73.3906 17.1016C73.7344 17.3203 74.0234 17.6328 74.2578 18.0391C74.4922 18.4297 74.6719 18.8984 74.7969 19.4453C74.9219 19.9922 74.9844 20.5781 74.9844 21.2031C74.9844 21.6719 74.9453 22.1875 74.8672 22.75C74.7891 23.3125 74.6719 23.8828 74.5156 24.4609C74.375 25.0234 74.1953 25.5859 73.9766 26.1484C73.7734 26.6953 73.5312 27.1875 73.25 27.625ZM70.0625 21.7891C70.0625 22.2422 70.1016 22.7344 70.1797 23.2656C70.2578 23.7969 70.3828 24.3125 70.5547 24.8125C70.7266 25.3125 70.9453 25.7812 71.2109 26.2188C71.4766 26.6406 71.8047 26.9766 72.1953 27.2266C72.4766 26.6797 72.7109 26.125 72.8984 25.5625C73.1016 24.9844 73.2656 24.4297 73.3906 23.8984C73.5312 23.3672 73.625 22.875 73.6719 22.4219C73.7344 21.9531 73.7656 21.5469 73.7656 21.2031C73.7656 20.7344 73.7266 20.3047 73.6484 19.9141C73.5703 19.5234 73.4609 19.1875 73.3203 18.9062C73.1953 18.6094 73.0312 18.3828 72.8281 18.2266C72.6406 18.0547 72.4297 17.9688 72.1953 17.9688C71.8828 17.9688 71.5938 18.0781 71.3281 18.2969C71.0625 18.5 70.8359 18.7812 70.6484 19.1406C70.4609 19.4844 70.3125 19.8906 70.2031 20.3594C70.1094 20.8125 70.0625 21.2891 70.0625 21.7891ZM97.0625 21.25C97.5156 20.7188 97.9844 20.2266 98.4688 19.7734C98.9531 19.3203 99.4375 18.9297 99.9219 18.6016C100.406 18.2734 100.883 18.0234 101.352 17.8516C101.836 17.6641 102.297 17.5703 102.734 17.5703C103.078 17.5703 103.414 17.6328 103.742 17.7578C104.086 17.8672 104.391 18.0469 104.656 18.2969C104.922 18.5312 105.133 18.8359 105.289 19.2109C105.445 19.5859 105.523 20.0312 105.523 20.5469C105.523 21.2969 105.422 22.0391 105.219 22.7734C105.016 23.4922 104.758 24.1953 104.445 24.8828C104.133 25.5703 103.797 26.2344 103.438 26.875C103.094 27.5156 102.766 28.1328 102.453 28.7266C102.141 29.3047 101.883 29.8594 101.68 30.3906C101.477 30.9062 101.375 31.3828 101.375 31.8203C101.375 32.1641 101.461 32.4141 101.633 32.5703C101.82 32.7109 102.016 32.7812 102.219 32.7812C102.625 32.7812 103.102 32.5469 103.648 32.0781C104.211 31.6094 104.797 31.0078 105.406 30.2734C106.016 29.5391 106.625 28.7344 107.234 27.8594C107.859 26.9688 108.453 26.1016 109.016 25.2578L109.859 25.9141C109.656 26.2422 109.391 26.6797 109.062 27.2266C108.75 27.7578 108.383 28.3359 107.961 28.9609C107.539 29.5703 107.078 30.1953 106.578 30.8359C106.078 31.4609 105.547 32.0312 104.984 32.5469C104.438 33.0469 103.867 33.4609 103.273 33.7891C102.68 34.1016 102.086 34.2578 101.492 34.2578C101.164 34.2578 100.844 34.2109 100.531 34.1172C100.234 34.0234 99.9688 33.875 99.7344 33.6719C99.5 33.4531 99.3125 33.1719 99.1719 32.8281C99.0312 32.4844 98.9609 32.0625 98.9609 31.5625C98.9609 30.875 99.0781 30.2031 99.3125 29.5469C99.5469 28.8906 99.8438 28.2422 100.203 27.6016C100.562 26.9609 100.945 26.3281 101.352 25.7031C101.773 25.0625 102.164 24.4297 102.523 23.8047C102.883 23.1797 103.18 22.5547 103.414 21.9297C103.648 21.2891 103.766 20.6406 103.766 19.9844C103.766 19.6562 103.703 19.3984 103.578 19.2109C103.453 19.0078 103.219 18.9062 102.875 18.9062C102.328 18.9062 101.75 19.1328 101.141 19.5859C100.531 20.0234 99.8984 20.6172 99.2422 21.3672C98.5859 22.1172 97.9141 22.9922 97.2266 23.9922C96.5391 24.9766 95.8516 26.0234 95.1641 27.1328C94.4922 28.2266 93.8203 29.3438 93.1484 30.4844C92.4922 31.6094 91.8594 32.6953 91.25 33.7422L89.2812 32.7109C90.1094 31.0078 90.8828 29.4844 91.6016 28.1406C92.3359 26.7969 92.9766 25.5859 93.5234 24.5078C94.0703 23.4141 94.5 22.4219 94.8125 21.5312C95.125 20.625 95.2812 19.7734 95.2812 18.9766C95.2812 18.8203 95.2656 18.6641 95.2344 18.5078C95.2031 18.3359 95.1406 18.1875 95.0469 18.0625C94.9531 17.9375 94.8281 17.8359 94.6719 17.7578C94.5312 17.6641 94.3438 17.6172 94.1094 17.6172C93.5781 17.6172 93.0391 17.8672 92.4922 18.3672C91.9453 18.8516 91.3672 19.5234 90.7578 20.3828C90.1484 21.2266 89.4922 22.2188 88.7891 23.3594C88.1016 24.4844 87.3516 25.6797 86.5391 26.9453C85.7422 28.2109 84.875 29.5156 83.9375 30.8594C83 32.1875 81.9766 33.4766 80.8672 34.7266L79.25 33.6484C79.75 32.8984 80.2734 32.1094 80.8203 31.2812C81.3828 30.4375 81.9297 29.5859 82.4609 28.7266C83.0078 27.8672 83.5234 27.0156 84.0078 26.1719C84.5078 25.3125 84.9453 24.5 85.3203 23.7344C85.6953 22.9688 85.9922 22.2656 86.2109 21.625C86.4297 20.9844 86.5391 20.4375 86.5391 19.9844C86.5391 19.4531 86.4062 19.0703 86.1406 18.8359C85.875 18.6016 85.5312 18.4844 85.1094 18.4844C84.6094 18.4844 84.1172 18.6641 83.6328 19.0234C83.1641 19.3828 82.6641 19.8906 82.1328 20.5469C81.6172 21.2031 81.0547 21.9922 80.4453 22.9141C79.8516 23.8203 79.1719 24.8203 78.4062 25.9141L77.5625 25.2578C78.3906 23.9453 79.1328 22.7891 79.7891 21.7891C80.4609 20.7891 81.0938 19.9531 81.6875 19.2812C82.2812 18.6094 82.8672 18.1016 83.4453 17.7578C84.0391 17.4141 84.6797 17.2422 85.3672 17.2422C85.5703 17.2422 85.8281 17.2812 86.1406 17.3594C86.4688 17.4375 86.7891 17.5781 87.1016 17.7812C87.4141 17.9844 87.6875 18.2656 87.9219 18.625C88.1719 18.9844 88.3203 19.4453 88.3672 20.0078C89.2422 18.8828 90.1562 17.9844 91.1094 17.3125C92.0625 16.6406 92.9609 16.3047 93.8047 16.3047C94.4141 16.3047 94.9297 16.4297 95.3516 16.6797C95.7734 16.9141 96.1094 17.2266 96.3594 17.6172C96.625 18.0078 96.8125 18.4531 96.9219 18.9531C97.0469 19.4375 97.1094 19.9297 97.1094 20.4297C97.1094 20.5547 97.1016 20.6875 97.0859 20.8281C97.0859 20.9688 97.0781 21.1094 97.0625 21.25ZM110.797 28.6562C110.766 28.8438 110.742 29.0312 110.727 29.2188C110.711 29.4062 110.703 29.5938 110.703 29.7812C110.703 30.3438 110.781 30.8828 110.938 31.3984C111.109 31.8984 111.352 32.3438 111.664 32.7344C111.992 33.1094 112.391 33.4062 112.859 33.625C113.344 33.8438 113.891 33.9531 114.5 33.9531C116.547 33.9531 118.523 33.2578 120.43 31.8672C122.336 30.4766 124.234 28.2734 126.125 25.2578L126.922 25.9609C125.891 27.6797 124.844 29.1328 123.781 30.3203C122.719 31.4922 121.656 32.4453 120.594 33.1797C119.547 33.9141 118.516 34.4453 117.5 34.7734C116.484 35.1016 115.516 35.2656 114.594 35.2656C113.922 35.2656 113.211 35.1719 112.461 34.9844C111.711 34.7969 111.016 34.4844 110.375 34.0469C109.75 33.6094 109.234 33.0234 108.828 32.2891C108.406 31.5547 108.195 30.6406 108.195 29.5469C108.195 28.375 108.398 27.25 108.805 26.1719C109.195 25.0781 109.711 24.0625 110.352 23.125C110.992 22.1875 111.727 21.3359 112.555 20.5703C113.383 19.7891 114.219 19.125 115.062 18.5781C115.922 18.0312 116.758 17.6094 117.57 17.3125C118.383 17 119.102 16.8438 119.727 16.8438C120.133 16.8438 120.547 16.9062 120.969 17.0312C121.391 17.1562 121.766 17.3516 122.094 17.6172C122.438 17.8828 122.711 18.2344 122.914 18.6719C123.133 19.1094 123.242 19.6328 123.242 20.2422C123.242 21.0703 123.047 21.8516 122.656 22.5859C122.281 23.3047 121.773 23.9766 121.133 24.6016C120.492 25.2109 119.75 25.7656 118.906 26.2656C118.062 26.75 117.18 27.1641 116.258 27.5078C115.336 27.8516 114.406 28.125 113.469 28.3281C112.531 28.5312 111.641 28.6406 110.797 28.6562ZM110.984 27.6484C112.031 27.5391 113.016 27.3203 113.938 26.9922C114.859 26.6641 115.703 26.2656 116.469 25.7969C117.234 25.3125 117.914 24.7891 118.508 24.2266C119.117 23.6641 119.625 23.0938 120.031 22.5156C120.438 21.9375 120.75 21.3828 120.969 20.8516C121.188 20.3203 121.297 19.8438 121.297 19.4219C121.297 19 121.18 18.6641 120.945 18.4141C120.727 18.1641 120.461 18.0391 120.148 18.0391C119.461 18.0391 118.688 18.2891 117.828 18.7891C116.969 19.2734 116.109 19.9531 115.25 20.8281C114.391 21.6875 113.578 22.7031 112.812 23.875C112.062 25.0469 111.453 26.3047 110.984 27.6484ZM145.695 21.8359C145.695 22.5078 145.578 23.1953 145.344 23.8984C145.109 24.5859 144.812 25.2812 144.453 25.9844C144.094 26.6719 143.711 27.3516 143.305 28.0234C142.898 28.6953 142.516 29.3438 142.156 29.9688C141.797 30.5938 141.5 31.1953 141.266 31.7734C141.031 32.3359 140.914 32.8516 140.914 33.3203C140.914 33.6797 140.992 33.9219 141.148 34.0469C141.305 34.1719 141.477 34.2344 141.664 34.2344C142.258 34.2344 142.922 33.9453 143.656 33.3672C144.391 32.7734 145.133 32.0312 145.883 31.1406C146.648 30.25 147.406 29.2812 148.156 28.2344C148.906 27.1875 149.586 26.1953 150.195 25.2578L151.039 25.9141C150.914 26.1016 150.688 26.4766 150.359 27.0391C150.031 27.5859 149.625 28.2188 149.141 28.9375C148.656 29.6406 148.109 30.3828 147.5 31.1641C146.906 31.9297 146.266 32.6406 145.578 33.2969C144.891 33.9375 144.18 34.4688 143.445 34.8906C142.727 35.3125 142 35.5234 141.266 35.5234C140.844 35.5234 140.461 35.4531 140.117 35.3125C139.773 35.1719 139.477 34.9766 139.227 34.7266C138.992 34.4766 138.805 34.1875 138.664 33.8594C138.523 33.5156 138.453 33.1562 138.453 32.7812C138.453 32.1719 138.586 31.5156 138.852 30.8125C139.133 30.0938 139.477 29.3594 139.883 28.6094C140.289 27.8594 140.734 27.1094 141.219 26.3594C141.703 25.5938 142.148 24.8672 142.555 24.1797C142.961 23.4922 143.297 22.8594 143.562 22.2812C143.844 21.6875 143.984 21.1797 143.984 20.7578C143.984 20.2734 143.852 19.8672 143.586 19.5391C143.336 19.2109 142.977 19.0469 142.508 19.0469C142.008 19.0469 141.43 19.2578 140.773 19.6797C140.117 20.0859 139.383 20.6875 138.57 21.4844C137.758 22.2812 136.867 23.2656 135.898 24.4375C134.945 25.5938 133.906 26.9141 132.781 28.3984C132.141 29.2578 131.516 30.0859 130.906 30.8828C130.641 31.2266 130.375 31.5781 130.109 31.9375C129.844 32.2969 129.578 32.6562 129.312 33.0156C129.047 33.3594 128.797 33.6875 128.562 34C128.328 34.3281 128.117 34.6094 127.93 34.8438L125.867 34L128.609 30.2266C129 29.6953 129.398 29.125 129.805 28.5156C130.211 27.9062 130.609 27.2812 131 26.6406C131.406 25.9844 131.789 25.3281 132.148 24.6719C132.508 24.0156 132.844 23.375 133.156 22.75C133.609 21.8125 133.922 21.0391 134.094 20.4297C134.266 19.8047 134.352 19.3047 134.352 18.9297C134.352 18.5078 134.273 18.2344 134.117 18.1094C133.961 17.9688 133.742 17.8984 133.461 17.8984C133.164 17.8984 132.82 18.0547 132.43 18.3672C132.055 18.6641 131.664 19.0547 131.258 19.5391C130.852 20.0078 130.438 20.5469 130.016 21.1562C129.609 21.75 129.219 22.3438 128.844 22.9375C128.469 23.5312 128.117 24.0938 127.789 24.625C127.461 25.1562 127.188 25.5859 126.969 25.9141L126.125 25.2578C126.922 24.0078 127.641 22.8672 128.281 21.8359C128.938 20.7891 129.562 19.8906 130.156 19.1406C130.766 18.3906 131.352 17.8125 131.914 17.4062C132.492 16.9844 133.102 16.7734 133.742 16.7734C134.086 16.7734 134.414 16.8438 134.727 16.9844C135.055 17.125 135.336 17.3359 135.57 17.6172C135.82 17.8828 136.016 18.2109 136.156 18.6016C136.297 18.9922 136.367 19.4453 136.367 19.9609C136.367 20.3672 136.32 20.7891 136.227 21.2266C136.914 20.5547 137.555 20 138.148 19.5625C138.742 19.125 139.289 18.7812 139.789 18.5312C140.289 18.2656 140.75 18.0781 141.172 17.9688C141.594 17.8594 141.977 17.8047 142.32 17.8047C142.617 17.8047 142.961 17.8594 143.352 17.9688C143.742 18.0781 144.109 18.2812 144.453 18.5781C144.797 18.875 145.086 19.2891 145.32 19.8203C145.57 20.3359 145.695 21.0078 145.695 21.8359ZM154.977 14.6641C155.133 14.3984 155.406 13.9375 155.797 13.2812C156.203 12.625 156.672 11.8984 157.203 11.1016C157.75 10.3047 158.336 9.50781 158.961 8.71094C159.602 7.89844 160.227 7.21094 160.836 6.64844L161.891 7.28125C161.219 8.39062 160.531 9.57031 159.828 10.8203C159.125 12.0547 158.43 13.3359 157.742 14.6641H165.383L164.914 15.8828H157.109C156.406 17.2891 155.742 18.6875 155.117 20.0781C154.508 21.4688 153.969 22.7969 153.5 24.0625C153.031 25.3281 152.664 26.5156 152.398 27.625C152.133 28.7188 152 29.6719 152 30.4844C152 31.5 152.234 32.2344 152.703 32.6875C153.172 33.125 153.75 33.3438 154.438 33.3438C155.047 33.3438 155.672 33.1641 156.312 32.8047C156.953 32.4297 157.578 31.9609 158.188 31.3984C158.812 30.8359 159.398 30.2188 159.945 29.5469C160.508 28.875 161 28.2422 161.422 27.6484C161.859 27.0547 162.219 26.5391 162.5 26.1016C162.781 25.6484 162.953 25.3672 163.016 25.2578L163.883 25.9141C163.336 26.8203 162.719 27.7812 162.031 28.7969C161.344 29.8125 160.578 30.7578 159.734 31.6328C158.906 32.4922 158 33.2109 157.016 33.7891C156.031 34.3516 154.969 34.6328 153.828 34.6328C153.125 34.6328 152.508 34.5078 151.977 34.2578C151.461 34.0078 151.023 33.6641 150.664 33.2266C150.305 32.7734 150.039 32.2422 149.867 31.6328C149.68 31.0234 149.586 30.3594 149.586 29.6406C149.586 29.1719 149.664 28.5078 149.82 27.6484C149.961 26.7891 150.211 25.7734 150.57 24.6016C150.93 23.4141 151.406 22.0859 152 20.6172C152.609 19.1484 153.375 17.5703 154.297 15.8828H150.406L150.875 14.6641H154.977Z" fill="#319800"/>
</svg>
