<svg width="55" height="55" viewBox="0 0 55 55" fill="none" xmlns="http://www.w3.org/2000/svg">
<circle cx="27.5" cy="27.5" r="27.5" fill="#A8DF8E"/>
<path d="M28 9C33.0391 9 37.8718 11.0018 41.435 14.565C44.9982 18.1282 47 22.9609 47 28C47 33.0391 44.9982 37.8718 41.435 41.435C37.8718 44.9982 33.0391 47 28 47C22.9609 47 18.1282 44.9982 14.565 41.435C11.0018 37.8718 9 33.0391 9 28C9 22.9609 11.0018 18.1282 14.565 14.565C18.1282 11.0018 22.9609 9 28 9ZM26.2188 17.9062V28C26.2188 28.5938 26.5156 29.1504 27.0129 29.4844L34.1379 34.2344C34.9543 34.7836 36.0602 34.5609 36.6094 33.7371C37.1586 32.9133 36.9359 31.8148 36.1121 31.2656L29.7812 27.05V17.9062C29.7812 16.9191 28.9871 16.125 28 16.125C27.0129 16.125 26.2188 16.9191 26.2188 17.9062Z" fill="#319800"/>
</svg>
