<svg width="55" height="55" viewBox="0 0 55 55" fill="none" xmlns="http://www.w3.org/2000/svg">
<circle cx="27.5" cy="27.5" r="27.5" fill="#A8DF8E"/>
<path d="M38.1752 9.20275C39.0422 8.78993 40.032 9.02111 40.6967 9.77245L45.3208 15.0566C45.7543 15.552 46 16.2208 46 16.9226C46 17.6244 45.7543 18.2931 45.3208 18.7885L40.6967 24.0727C40.032 24.8322 39.0422 25.0552 38.1752 24.6423C37.3081 24.2295 36.7446 23.2718 36.7446 22.1984V19.5729H34.4325C33.7028 19.5729 33.0164 19.9609 32.5829 20.6297L29.5194 25.2946L26.6294 20.8939L28.8836 17.4592C30.1914 15.4612 32.2505 14.2887 34.4325 14.2887H36.7446V11.6467C36.7446 10.5816 37.3081 9.61558 38.1752 9.20275ZM20.8492 29.7036L23.7393 34.1043L21.4851 37.539C20.1773 39.537 18.1181 40.7094 15.9361 40.7094H11.312C10.0332 40.7094 9 39.5288 9 38.0674C9 36.606 10.0332 35.4253 11.312 35.4253H15.9361C16.6659 35.4253 17.3523 35.0372 17.7858 34.3685L20.8492 29.7036ZM40.6895 45.2257C40.0248 45.9853 39.035 46.2082 38.1679 45.7954C37.3009 45.3826 36.7374 44.4248 36.7374 43.3515V40.7094H34.4325C32.2505 40.7094 30.1914 39.537 28.8836 37.539L17.7858 20.6297C17.3523 19.9609 16.6659 19.5729 15.9361 19.5729H11.312C10.0332 19.5729 9 18.3922 9 16.9308C9 15.4694 10.0332 14.2887 11.312 14.2887H15.9361C18.1181 14.2887 20.1773 15.4612 21.4851 17.4592L32.5829 34.3685C33.0164 35.0372 33.7028 35.4253 34.4325 35.4253H36.7446V32.7832C36.7446 31.7181 37.3081 30.7521 38.1752 30.3393C39.0422 29.9265 40.032 30.1577 40.6967 30.909L45.3208 36.1931C45.7543 36.6885 46 37.3573 46 38.0591C46 38.7609 45.7543 39.4297 45.3208 39.9251L40.6967 45.2092L40.6895 45.2257Z" fill="#319800"/>
</svg>
